<?xml version="1.0" standalone="no"?>
<!DOCTYPE svg PUBLIC "-//W3C//DTD SVG 1.1//EN" "http://www.w3.org/Graphics/SVG/1.1/DTD/svg11.dtd" >
<svg xmlns="http://www.w3.org/2000/svg">
<metadata>Generated by IcoMoon</metadata>
<defs>
<font id="qb-icon" horiz-adv-x="1024">
<font-face units-per-em="1024" ascent="896" descent="-128" />
<missing-glyph horiz-adv-x="1024" />
<glyph unicode="&#x20;" horiz-adv-x="0" d="" />
<glyph unicode="&#x78;" glyph-name="x" horiz-adv-x="1001" d="M281 543q-27-1-53-1h-83q-18 0-36.5-6t-32.5-18.5-23-32-9-45.5v-76h912v41q0 16-0.5 30t-0.5 18q0 13-5 29t-17 29.5-31.5 22.5-49.5 9h-133v-97h-438v97zM955 310v-52q0-23 0.5-52t0.5-58-10.5-47.5-26-30-33-16-31.5-4.5q-14-1-29.5-0.5t-29.5 0.5h-32l-45 128h-439l-44-128h-63q-20 0-45 1-25 0-41 9.5t-25.5 23-13.5 29.5-4 30v167h911zM163 247q-12 0-21-8.5t-9-21.5 9-21.5 21-8.5q13 0 22 8.5t9 21.5-9 21.5-22 8.5zM316 123q-8-26-14-48-5-19-10.5-37t-7.5-25-3-15 1-14.5 9.5-10.5 21.5-4h365q23 0 34 12t2 38q-5 13-9.5 30.5t-9.5 34.5q-5 19-11 39h-368zM336 498v228q0 11 2.5 23t10 21.5 20.5 15.5 34 6h188q31 0 51.5-14.5t20.5-52.5v-227h-327z" />
<glyph unicode="&#xe639;" glyph-name="download" d="M48-128c-25.6 0-48 22.4-48 48v288c0 25.6 22.4 48 48 48s48-22.4 48-48v-288c0-25.6-22.4-48-48-48zM976-128c-25.6 0-48 22.4-48 48v288c0 25.6 22.4 48 48 48s48-22.4 48-48v-288c0-25.6-22.4-48-48-48zM560 179.2h-96v496c0 25.6 22.4 48 48 48s48-22.4 48-48v-496zM976-128h-928c-25.6 0-48 22.4-48 48s22.4 48 48 48h928c25.6 0 48-22.4 48-48s-22.4-48-48-48zM476.8 131.2l-182.4 182.4c-19.2 19.2-19.2 48 0 67.2s48 19.2 67.2 0l182.4-182.4c19.2-19.2 19.2-48 0-67.2-16-19.2-48-19.2-67.2 0zM547.2 131.2l182.4 182.4c19.2 19.2 19.2 48 0 67.2s-48 19.2-67.2 0l-182.4-182.4c-19.2-19.2-19.2-48 0-67.2 16-19.2 48-19.2 67.2 0z" />
<glyph unicode="&#xe648;" glyph-name="delete" d="M400 892.8h224v-128h-224zM76.8 803.2h870.4v-96h-870.4zM857.6-124.8h-691.2v739.2h691.2v-739.2zM262.4-28.8h499.2v547.2h-499.2v-547.2zM480 576h64v-640h-64z" />
<glyph unicode="&#xe64d;" glyph-name="account" d="M787.2 790.4c0-19.2 12.8-32 32-32h32v-787.2h-675.2v787.2h32c19.2 0 32 12.8 32 32s-12.8 32-32 32h-48c-28.8 0-48-22.4-48-48v-819.2c0-25.6 22.4-48 48-48h707.2c25.6 0 48 22.4 48 48v819.2c0 25.6-22.4 48-48 48h-48c-19.2 0-32-16-32-32zM403.2 787.2c0-19.2 12.8-32 32-32h160c19.2 0 32 12.8 32 32s-12.8 32-32 32h-160c-19.2 0-32-12.8-32-32zM288 512c0-19.2 12.8-32 32-32h390.4c19.2 0 32 12.8 32 32s-12.8 32-32 32h-390.4c-19.2 0-32-16-32-32zM288 332.8c0-19.2 12.8-32 32-32h390.4c19.2 0 32 12.8 32 32s-12.8 32-32 32h-390.4c-19.2 0-32-16-32-32zM288 153.6c0-19.2 12.8-32 32-32h390.4c19.2 0 32 12.8 32 32s-12.8 32-32 32h-390.4c-19.2 0-32-12.8-32-32zM323.2 864c-19.2 0-32-12.8-32-32v-124.8c0-19.2 12.8-32 32-32s32 12.8 32 32v124.8c0 16-16 32-32 32zM707.2 864c-19.2 0-32-12.8-32-32v-124.8c0-19.2 12.8-32 32-32s32 12.8 32 32v124.8c0 16-16 32-32 32z" />
<glyph unicode="&#xe64e;" glyph-name="home" d="M9.6 332.8c12.8-12.8 35.2-12.8 48 0l454.4 454.4 454.4-454.4c12.8-12.8 35.2-12.8 48 0s12.8 35.2 0 48l-502.4 499.2-502.4-502.4c-12.8-12.8-12.8-32 0-44.8zM720 748.8h166.4v-166.4c0-19.2 16-32 32-32 19.2 0 32 16 32 32v201.6c0 9.6-3.2 16-9.6 22.4s-12.8 9.6-22.4 9.6h-198.4c-19.2 0-32-16-32-32 0-19.2 12.8-35.2 32-35.2zM115.2 323.2v-393.6c0-19.2 16-32 32-32h236.8c19.2 0 32 16 32 32v144h192v-144c0-19.2 16-32 32-32h230.4c19.2 0 32 16 32 32v393.6c0 19.2-16 32-32 32s-32-16-32-32v-361.6h-163.2v144c0 19.2-16 32-32 32h-256c-19.2 0-32-16-32-32v-144h-176v361.6c0 19.2-16 32-32 32s-32-16-32-32z" />
<glyph unicode="&#xe64f;" glyph-name="instead" d="M496.050 414.305c-6.38 0-12.76 3.19-15.95 6.38s-6.38 9.57-6.38 15.95 3.19 9.57 6.38 15.95c3.19 3.19 9.57 6.38 15.95 6.38h51.040l-47.85 82.941c-3.19 3.19-3.19 6.38-6.38 9.57s-3.19 9.57-3.19 12.76c0 6.38 3.19 12.76 6.38 15.95s9.57 6.38 19.14 6.38c6.38 0 9.57-3.19 15.95-6.38 3.19-3.19 9.57-6.38 9.57-12.76l54.231-98.891 60.611 98.891 9.57 9.57c3.19 3.19 9.57 6.38 15.95 6.38h9.57c3.19 0 6.38-3.19 6.38-3.19 3.19 3.19 6.38 3.19 6.38 0s3.19-6.38 3.19-12.76-3.19-12.76-6.38-19.14l-54.231-89.321h51.040c6.38 0 9.57-3.19 15.95-6.38 3.19-3.19 6.38-9.57 6.38-15.95s-3.19-12.76-6.38-15.95c-3.19-3.19-9.57-6.38-15.95-6.38h-66.991v-22.33h66.991c6.38 0 9.57-3.19 15.95-6.38 3.19-3.19 6.38-9.57 6.38-15.95s-3.19-12.76-6.38-15.95c-3.19-3.19-9.57-6.38-15.95-6.38h-66.991v-38.28c0-19.14-12.76-28.71-31.9-28.71-9.57 0-19.14 3.19-25.52 6.38-6.38 6.38-9.57 12.76-9.57 22.33v38.28h-66.991c-6.38 0-12.76 3.19-15.95 6.38-3.19 6.38-6.38 9.57-6.38 15.95s3.19 9.57 6.38 15.95c3.19 3.19 9.57 6.38 15.95 6.38h66.991v22.33h-66.991zM735.302 82.542h-277.533c-15.95 0-28.71 12.76-28.71 25.52s12.76 25.52 28.71 25.52h277.533c15.95 0 28.71-12.76 28.71-25.52 0-15.95-12.76-25.52-28.71-25.52zM735.302 187.813h-277.533c-15.95 0-28.71 12.76-28.71 25.52 0 15.95 12.76 25.52 28.71 25.52h277.533c15.95 0 28.71-12.76 28.71-25.52s-12.76-25.52-28.71-25.52zM170.667 98.492h-41.47c-25.52 0-47.85 22.33-47.85 47.85v701.807c0 25.52 22.33 47.85 47.85 47.85h564.636c25.52 0 47.85-22.33 47.85-47.85v-51.040c0-19.14-12.76-31.9-31.9-31.9s-31.9 12.76-31.9 31.9v35.090h-532.735v-669.907h22.33c19.14 0 31.9-12.76 31.9-31.9s-12.76-31.9-28.71-31.9zM949.034 640.798v31.9c0 25.52-22.33 47.85-47.85 47.85h-606.106c-25.52 0-47.85-22.33-47.85-47.85v-51.040l-3.19-628.436c0-12.76 3.19-22.33 12.76-31.9l60.611-66.991c12.76-12.76 31.9-19.14 47.85-19.14s31.9 6.38 44.66 15.95l60.611 51.040c6.38 6.38 15.95 6.38 22.33 0l47.85-47.85c25.52-28.71 73.371-28.71 102.081 0l47.85 47.85c3.19 3.19 6.38 6.38 12.76 6.38 3.19 0 9.57 0 12.76-6.38l54.231-51.040c25.52-25.52 66.991-25.52 95.701 0l66.991 66.991c9.57 9.57 12.76 22.33 12.76 35.090l3.19 647.576zM882.044-0.399l-60.611-63.801c-3.19-3.19-6.38-3.19-6.38 0l-57.421 51.040c-15.95 15.95-35.090 22.33-57.421 22.33s-41.47-9.57-57.421-25.52l-44.66-44.66c-3.19-3.19-3.19-3.19-6.38 0l-41.47 44.66c-28.71 31.9-79.751 35.090-111.651 6.38l-66.991-54.231c-3.19-3.19-6.38-3.19-6.38 0l-57.421 63.801 3.19 625.246v31.9h574.206l-3.19-657.146z" />
<glyph unicode="&#xe650;" glyph-name="payment" d="M758.4-118.4c-214.4-35.2-400 150.4-364.8 364.8 22.4 131.2 124.8 233.6 256 256 214.4 35.2 400-150.4 364.8-364.8-22.4-128-128-233.6-256-256zM704 441.6c-137.6 0-249.6-112-249.6-252.8s112-249.6 249.6-249.6 249.6 112 249.6 249.6-112 252.8-249.6 252.8zM640 675.2h-448c-16 0-32 12.8-32 32 0 16 12.8 32 32 32h448c16 0 32-12.8 32-32s-12.8-32-32-32zM396.8 451.2h-204.8c-16 0-32 12.8-32 32 0 16 12.8 32 32 32h204.8c16 0 32-12.8 32-32s-16-32-32-32zM307.2 220.8h-115.2c-16 0-32 12.8-32 32 0 16 12.8 32 32 32h115.2c16 0 32-12.8 32-32s-16-32-32-32zM416-32h-352v864h704v-268.8c0-19.2 12.8-32 32-32s32 12.8 32 32v284.8c0 25.6-22.4 48-48 48h-736c-25.6 0-48-22.4-48-48v-896c0-25.6 22.4-48 48-48h368c19.2 0 32 12.8 32 32s-12.8 32-32 32zM633.6 60.8l-96 86.4c-12.8 12.8-12.8 32-3.2 44.8 12.8 12.8 32 12.8 44.8 3.2l83.2-76.8 160 198.4c9.6 12.8 28.8 16 44.8 6.4 12.8-9.6 16-28.8 6.4-44.8l-169.6-208c-16-25.6-51.2-28.8-70.4-9.6z" />
<glyph unicode="&#xe651;" glyph-name="other" d="M256 160c-54.4 0-96 41.6-96 96s41.6 96 96 96 96-41.6 96-96-41.6-96-96-96zM256 288c-19.2 0-32-16-32-32s16-32 32-32 32 16 32 32-12.8 32-32 32zM512 160c-54.4 0-96 41.6-96 96s41.6 96 96 96 96-41.6 96-96-41.6-96-96-96zM512 288c-19.2 0-32-16-32-32s16-32 32-32 32 16 32 32-12.8 32-32 32zM768 160c-54.4 0-96 41.6-96 96s41.6 96 96 96 96-41.6 96-96-44.8-96-96-96zM768 288c-19.2 0-32-16-32-32s16-32 32-32c19.2 0 32 16 32 32s-16 32-32 32zM976-89.6h-928c-25.6 0-48 22.4-48 48v595.2c0 25.6 22.4 48 48 48h928c25.6 0 48-22.4 48-48v-598.4c0-25.6-22.4-44.8-48-44.8zM64-25.6h896v563.2h-896v-563.2z" />
<glyph unicode="&#xe652;" glyph-name="other1" d="M790.4 16l-57.6 32c0 9.6 3.2 19.2 3.2 28.8s0 19.2-3.2 28.8l57.6 35.2c16 9.6 22.4 32 12.8 48l-51.2 89.6c-9.6 16-32 22.4-48 12.8l-57.6-35.2-48 28.8v67.2c0 19.2-16 35.2-35.2 35.2h-102.4c-19.2 0-35.2-16-35.2-35.2v-67.2c-16-6.4-32-16-48-28.8l-57.6 32c-16 9.6-38.4 3.2-48-12.8l-51.2-89.6c-9.6-16-3.2-38.4 12.8-48l54.4-32 3.2-3.2c0-9.6-3.2-19.2-3.2-28.8s0-19.2 3.2-28.8l-57.6-32 179.2-12.8-9.6 9.6c-9.6 19.2-16 38.4-16 60.8 0 67.2 54.4 121.6 121.6 121.6s121.6-54.4 121.6-121.6c0-32-12.8-60.8-32-83.2l208-12.8c3.2 19.2-3.2 32-16 41.6zM976 732.8h-928c-25.6 0-48-19.2-48-48v-681.6c0-25.6 22.4-48 48-48h924.8c25.6 0 48 22.4 48 48v681.6c3.2 28.8-19.2 48-44.8 48zM441.6 662.4h476.8v-92.8h-476.8v92.8zM352 652.8c19.2 0 38.4-16 38.4-38.4s-19.2-38.4-38.4-38.4-38.4 16-38.4 38.4c0 19.2 16 38.4 38.4 38.4zM227.2 652.8c19.2 0 38.4-16 38.4-38.4s-19.2-38.4-38.4-38.4-38.4 16-38.4 38.4c0 19.2 19.2 38.4 38.4 38.4zM67.2 614.4c0 19.2 16 38.4 38.4 38.4s38.4-16 38.4-38.4-19.2-38.4-41.6-38.4c-19.2 0-35.2 16-35.2 38.4zM956.8 22.4h-892.8v480h892.8v-480z" />
<glyph unicode="&#xe653;" glyph-name="credit" d="M982.4 678.4h-249.6v118.4c0 22.4-19.2 41.6-41.6 41.6h-352c-22.4 0-41.6-19.2-41.6-41.6v-118.4h-256c-22.4 0-41.6-19.2-41.6-41.6v-665.6c0-22.4 19.2-41.6 41.6-41.6h940.8c22.4 0 41.6 19.2 41.6 41.6v665.6c0 22.4-19.2 41.6-41.6 41.6zM358.4 774.4h307.2v-99.2h-310.4c3.2 9.6 3.2 76.8 3.2 99.2zM960-6.4h-892.8v32c-3.2 131.2-3.2 262.4-3.2 390.4v192h892.8l3.2-614.4zM656 441.6c-70.4 0-128-48-144-112h-115.2v73.6h-48v-73.6h-76.8v73.6h-51.2v-147.2h291.2c16-64 73.6-112 144-112 83.2 0 147.2 67.2 147.2 147.2s-67.2 150.4-147.2 150.4zM656 217.6c-41.6 0-76.8 35.2-76.8 76.8s35.2 76.8 76.8 76.8c41.6 0 76.8-35.2 76.8-76.8s-35.2-76.8-76.8-76.8z" />
<glyph unicode="&#xe654;" glyph-name="username" d="M512 288c-166.4 0-304 137.6-304 304s137.6 304 304 304 304-137.6 304-304-137.6-304-304-304zM512 800c-115.2 0-208-92.8-208-208s92.8-208 208-208 208 92.8 208 208-92.8 208-208 208zM928-128c-25.6 0-48 22.4-48 48 0 201.6-166.4 368-368 368s-368-166.4-368-368c0-25.6-22.4-48-48-48s-48 22.4-48 48c0 256 208 464 464 464s464-208 464-464c0-25.6-22.4-48-48-48z" />
<glyph unicode="&#xe655;" glyph-name="quit" d="M454.4-70.4c-249.6 0-454.4 201.6-454.4 454.4s204.8 454.4 454.4 454.4c54.4 0 108.8-9.6 160-28.8 32-12.8 60.8-25.6 89.6-44.8 16-9.6 19.2-28.8 9.6-44.8-9.6-12.8-28.8-19.2-41.6-9.6-22.4 16-48 28.8-76.8 38.4-44.8 16-89.6 25.6-137.6 25.6-217.6 0-393.6-172.8-393.6-390.4s176-390.4 390.4-390.4c48 0 96 9.6 137.6 25.6 25.6 9.6 51.2 22.4 76.8 38.4 16 9.6 35.2 6.4 44.8-9.6s6.4-35.2-9.6-44.8c-28.8-19.2-57.6-32-89.6-44.8-48-19.2-102.4-28.8-160-28.8zM473.6 172.8c-115.2 0-211.2 92.8-211.2 211.2s92.8 211.2 211.2 211.2c32 0 67.2-6.4 96-22.4 16-9.6 22.4-28.8 12.8-41.6s-28.8-22.4-41.6-12.8c-19.2 9.6-41.6 16-67.2 16-80 0-147.2-64-147.2-147.2s64-147.2 147.2-147.2c22.4 0 44.8 6.4 67.2 16 16 9.6 35.2 3.2 41.6-12.8 9.6-16 3.2-35.2-12.8-41.6-28.8-19.2-64-28.8-96-28.8zM956.8 352h-310.4c-19.2 0-32 12.8-32 32s12.8 32 32 32h310.4c19.2 0 32-12.8 32-32s-16-32-32-32zM819.2 163.2c-9.6 0-16 3.2-22.4 9.6-12.8 12.8-12.8 32 0 44.8l160 160c3.2 3.2 3.2 6.4 0 9.6l-160 160c-12.8 12.8-12.8 32 0 44.8s32 12.8 44.8 0l160-160c28.8-28.8 28.8-73.6 0-99.2l-160-160c-6.4-6.4-12.8-9.6-22.4-9.6z" />
<glyph unicode="&#xe656;" glyph-name="password" d="M768 448h-96v192c0 89.6-70.4 160-160 160s-160-70.4-160-160v-192h-96v192c0 140.8 115.2 256 256 256s256-115.2 256-256v-192zM841.6-128h-662.4c-38.4 0-70.4 28.8-70.4 67.2v473.6c0 38.4 32 67.2 70.4 67.2h662.4c38.4 0 70.4-28.8 70.4-67.2v-473.6c0-35.2-32-67.2-70.4-67.2zM217.6-25.6h592v406.4h-592v-406.4zM576 256c0 35.2-28.8 64-64 64s-64-28.8-64-64c0-25.6 12.8-44.8 35.2-57.6 0-3.2-3.2-6.4-3.2-6.4v-128c0-19.2 12.8-32 32-32s32 12.8 32 32v128c0 3.2 0 6.4-3.2 6.4 22.4 12.8 35.2 35.2 35.2 57.6z" />
<glyph unicode="&#xe657;" glyph-name="choose" d="M512-128c-281.6 0-512 230.4-512 512s230.4 512 512 512 512-230.4 512-512-230.4-512-512-512zM512 832c-246.4 0-448-201.6-448-448s201.6-448 448-448 448 201.6 448 448-201.6 448-448 448zM268.8 384c0-134.316 108.884-243.2 243.2-243.2s243.2 108.884 243.2 243.2v0c0 134.316-108.884 243.2-243.2 243.2s-243.2-108.884-243.2-243.2v0z" />
<glyph unicode="&#xe658;" glyph-name="close" d="M150.4 745.6c-198.4-198.4-198.4-524.8 0-723.2s524.8-198.4 723.2 0 198.4 524.8 0 723.2-524.8 201.6-723.2 0zM694.4 518.4l-137.6-134.4 134.4-134.4c12.8-12.8 12.8-32 0-44.8s-32-12.8-44.8 0l-134.4 134.4-134.4-134.4c-12.8-12.8-32-12.8-44.8 0s-12.8 32 0 44.8l134.4 134.4-134.4 134.4c-12.8 12.8-12.8 32 0 44.8s32 12.8 44.8 0l134.4-134.4 134.4 134.4c12.8 12.8 32 12.8 44.8 0 12.8-9.6 12.8-32 3.2-44.8z" />
<glyph unicode="&#xe659;" glyph-name="calendar" d="M896-96h-768c-35.2 0-64 28.8-64 64v771.2c0 3.2 3.2 9.6 3.2 12.8l32 32c12.8 6.4 28.8 0 28.8-12.8v-787.2c0-9.6 6.4-16 16-16h736c9.6 0 16 6.4 16 16v787.2c0 12.8 16 22.4 28.8 12.8l32-32c0-6.4 3.2-9.6 3.2-12.8v-771.2c0-35.2-28.8-64-64-64zM64 672h896v-64h-896zM272 704h-32c-9.6 0-16 6.4-16 16v128c0 9.6 6.4 16 16 16h32c9.6 0 16-6.4 16-16v-128c0-9.6-6.4-16-16-16zM400 704h-32c-9.6 0-16 6.4-16 16v128c0 9.6 6.4 16 16 16h32c9.6 0 16-6.4 16-16v-128c0-9.6-6.4-16-16-16zM528 704h-32c-9.6 0-16 6.4-16 16v128c0 9.6 6.4 16 16 16h32c9.6 0 16-6.4 16-16v-128c0-9.6-6.4-16-16-16zM656 704h-32c-9.6 0-16 6.4-16 16v128c0 9.6 6.4 16 16 16h32c9.6 0 16-6.4 16-16v-128c0-9.6-6.4-16-16-16zM784 704h-32c-9.6 0-16 6.4-16 16v128c0 9.6 6.4 16 16 16h32c9.6 0 16-6.4 16-16v-128c0-9.6-6.4-16-16-16zM464 448h-96c-9.6 0-16-6.4-16-16v-32c0-9.6 6.4-16 16-16h48v-272c0-9.6 6.4-16 16-16h32c9.6 0 16 6.4 16 16v320c0 9.6-6.4 16-16 16zM656 448h-96c-9.6 0-16-6.4-16-16v-32c0-9.6 6.4-16 16-16h48v-272c0-9.6 6.4-16 16-16h32c9.6 0 16 6.4 16 16v320c0 9.6-6.4 16-16 16z" />
<glyph unicode="&#xe65a;" glyph-name="bell" d="M844.8 51.2h-665.6c-19.2 0-35.2 9.6-41.6 25.6-9.6 16-6.4 35.2 3.2 51.2 25.6 35.2 44.8 70.4 57.6 108.8 9.6 28.8 16 57.6 22.4 86.4 3.2 22.4 3.2 172.8 3.2 236.8-3.2 128 60.8 224 185.6 268.8 9.6 3.2 16 6.4 19.2 9.6l9.6 9.6c6.4 9.6 9.6 12.8 16 19.2s12.8 12.8 22.4 16c6.4 3.2 19.2 9.6 38.4 9.6h6.4c19.2 0 28.8-6.4 35.2-9.6 9.6-3.2 16-9.6 22.4-16s6.4-9.6 16-19.2c3.2-3.2 6.4-9.6 9.6-9.6 3.2-3.2 9.6-6.4 19.2-9.6 124.8-44.8 188.8-140.8 185.6-272 0-64 0-211.2 3.2-236.8 3.2-28.8 9.6-57.6 19.2-86.4 12.8-38.4 32-73.6 57.6-112 9.6-16 12.8-35.2 3.2-51.2-12.8-9.6-32-19.2-48-19.2zM211.2 115.2h601.6c-22.4 32-38.4 67.2-51.2 102.4-12.8 32-19.2 64-22.4 99.2-3.2 25.6-3.2 140.8-3.2 243.2 3.2 128-76.8 185.6-140.8 211.2-16 6.4-32 12.8-44.8 25.6-3.2 3.2-9.6 9.6-12.8 16-6.4 6.4-6.4 9.6-9.6 12.8l-6.4 6.4c-3.2 0-3.2 3.2-6.4 3.2s-6.4 0-6.4-3.2c-3.2 0-3.2-3.2-6.4-3.2-3.2-3.2-6.4-6.4-9.6-12.8-6.4-6.4-12.8-12.8-12.8-16-12.8-12.8-28.8-22.4-44.8-25.6-64-22.4-144-80-140.8-208 0-105.6 0-220.8-3.2-243.2-3.2-35.2-12.8-67.2-25.6-99.2-16-41.6-35.2-76.8-54.4-108.8zM512-128c-60.8 0-121.6 28.8-156.8 76.8-9.6 12.8-6.4 35.2 6.4 44.8s35.2 6.4 44.8-6.4c25.6-32 64-51.2 105.6-51.2 38.4 0 80 19.2 105.6 51.2 12.8 12.8 32 16 44.8 3.2s16-32 3.2-44.8c-38.4-44.8-96-73.6-153.6-73.6z" />
<glyph unicode="&#xe65b;" glyph-name="back" d="M976 624h-704c-25.6 0-48 22.4-48 48s22.4 48 48 48h704c25.6 0 48-22.4 48-48s-22.4-48-48-48zM976 336h-704c-25.6 0-48 22.4-48 48s22.4 48 48 48h704c25.6 0 48-22.4 48-48s-22.4-48-48-48zM976 48h-704c-25.6 0-48 22.4-48 48s22.4 48 48 48h704c25.6 0 48-22.4 48-48s-22.4-48-48-48zM99.2 281.6l-89.6 89.6c-6.4 6.4-6.4 16 0 22.4l89.6 89.6c9.6 9.6 28.8 3.2 28.8-12.8v-182.4c0-9.6-16-16-28.8-6.4z" />
<glyph unicode="&#xe65c;" glyph-name="add" d="M512-128c-281.6 0-512 230.4-512 512s230.4 512 512 512 512-230.4 512-512-230.4-512-512-512zM512 832c-246.4 0-448-201.6-448-448s201.6-448 448-448 448 201.6 448 448-201.6 448-448 448zM227.2 473.6h569.6v-176h-569.6zM422.4 668.8h176v-569.6h-176z" />
<glyph unicode="&#xe65d;" glyph-name="delete1" d="M512-128c-281.6 0-512 230.4-512 512s230.4 512 512 512 512-230.4 512-512-230.4-512-512-512zM512 832c-246.4 0-448-201.6-448-448s201.6-448 448-448 448 201.6 448 448-201.6 448-448 448zM227.2 473.6h569.6v-176h-569.6z" />
<glyph unicode="&#xe65e;" glyph-name="delete2" d="M150.4 22.4c-19.2 19.2-19.2 48 0 67.2l656 656c19.2 19.2 48 19.2 67.2 0s19.2-48 0-67.2l-656-656c-19.2-19.2-48-19.2-67.2 0zM150.4 745.6c19.2 19.2 48 19.2 67.2 0l656-656c19.2-19.2 19.2-48 0-67.2s-48-19.2-67.2 0l-656 656c-19.2 19.2-19.2 48 0 67.2z" />
<glyph unicode="&#xe65f;" glyph-name="delete3" d="M416 892.8h192c9.6 0 16-6.4 16-16v-96c0-9.6-6.4-16-16-16h-192c-9.6 0-16 6.4-16 16v96c0 9.6 6.4 16 16 16zM92.8 803.2h838.4c9.6 0 16-6.4 16-16v-64c0-9.6-6.4-16-16-16h-838.4c-9.6 0-16 6.4-16 16v64c0 9.6 6.4 16 16 16zM841.6-124.8h-659.2c-9.6 0-16 6.4-16 16v707.2c0 9.6 6.4 16 16 16h659.2c9.6 0 16-6.4 16-16v-707.2c0-6.4-6.4-16-16-16zM278.4-28.8h467.2c9.6 0 16 6.4 16 16v515.2c0 9.6-6.4 16-16 16h-467.2c-9.6 0-16-6.4-16-16v-515.2c0-6.4 6.4-16 16-16zM496 576h32c9.6 0 16-6.4 16-16v-608c0-9.6-6.4-16-16-16h-32c-9.6 0-16 6.4-16 16v608c0 9.6 6.4 16 16 16z" />
<glyph unicode="&#xe660;" glyph-name="details" d="M559.332 224.802c-25.569 0-47.943 22.373-47.943 47.943v319.618c0 25.569 22.373 47.943 47.943 47.943 28.766 0 47.943-22.373 47.943-47.943v-319.618c0-25.569-19.177-47.943-47.943-47.943zM351.58 432.554c0 25.569 22.373 47.943 47.943 47.943h319.618c25.569 0 47.943-22.373 47.943-47.943s-22.373-47.943-47.943-47.943h-319.618c-25.569 0-47.943 22.373-47.943 47.943zM559.332-27.697c-255.695 0-463.446 207.752-463.446 463.446 3.196 252.498 207.752 460.25 463.446 460.25s463.446-207.752 463.446-463.446-207.752-460.25-463.446-460.25zM559.332 800.115c-201.36 0-364.365-166.201-364.365-367.561s163.005-367.561 367.561-367.561c201.36 0 367.561 163.005 367.561 367.561-3.196 201.36-169.398 367.561-370.757 367.561zM19.177-113.994c-19.177 19.177-19.177 51.139 0 70.316l214.144 214.144 67.12-67.12-214.144-214.144c-15.981-22.373-47.943-22.373-67.12-3.196z" />
<glyph unicode="&#xe661;" glyph-name="search" horiz-adv-x="1026" d="M434.81 61.549c-223.799 0-402.838 179.039-402.838 399.641s179.039 402.838 402.838 402.838 402.838-179.039 402.838-402.838-182.236-399.641-402.838-399.641zM434.81 800.086c-188.631 0-338.896-150.265-338.896-338.896s150.265-338.896 338.896-338.896 338.896 150.265 338.896 338.896-153.462 338.896-338.896 338.896zM943.153-117.49l-274.953 274.953c-15.986 15.986-15.986 15.986 3.197 35.168s51.154 51.154 67.14 35.168l274.953-274.953c15.986-15.986 15.986-47.957-3.197-67.14-19.183-15.986-51.154-19.183-67.14-3.197z" />
<glyph unicode="&#xe662;" glyph-name="open" d="M384 348.8c0-76.8 57.6-137.6 128-137.6s128 60.8 128 137.6c-12.8-16-32-22.4-54.4-22.4-41.6 0-73.6 35.2-73.6 80 0 32 16 60.8 41.6 73.6-12.8 6.4-28.8 6.4-41.6 6.4-70.4 0-128-60.8-128-137.6zM992 428.8c-80 108.8-272 288-480 288-211.2 0-403.2-179.2-480-288-19.2-25.6-28.8-51.2-28.8-76.8s9.6-54.4 28.8-76.8c80-108.8 272-288 480-288s403.2 179.2 480 288c19.2 25.6 28.8 51.2 28.8 76.8s-9.6 51.2-28.8 76.8zM512 121.6c-118.4 0-211.2 102.4-211.2 230.4s96 230.4 211.2 230.4 211.2-102.4 211.2-230.4-92.8-230.4-211.2-230.4z" />
<glyph unicode="&#xe663;" glyph-name="code" d="M944 736h-864c-25.6 0-48 22.4-48 48s22.4 48 48 48h864c25.6 0 48-22.4 48-48s-22.4-48-48-48zM512-32c-25.6 0-48 22.4-48 48v752h96v-752c0-25.6-22.4-48-48-48z" />
<glyph unicode="&#xe664;" glyph-name="eye-close" d="M512 358.4c-230.4 0-435.2 86.4-492.8 208-9.6 16-3.2 35.2 12.8 41.6s35.2 0 41.6-16c48-99.2 230.4-172.8 435.2-172.8s387.2 73.6 435.2 172.8c12.8 16 32 22.4 48 16s22.4-25.6 16-41.6c-60.8-124.8-265.6-208-496-208zM988.8 304c-9.6 0-19.2 3.2-25.6 12.8l-115.2 137.6c-12.8 12.8-9.6 35.2 3.2 44.8 12.8 12.8 35.2 9.6 44.8-3.2l115.2-137.6c12.8-12.8 9.6-35.2-3.2-44.8-6.4-6.4-12.8-9.6-19.2-9.6zM784 195.2c-12.8 0-22.4 6.4-28.8 19.2l-89.6 182.4c-6.4 16 0 35.2 16 41.6s35.2 0 41.6-16l89.6-182.4c6.4-16 0-35.2-16-41.6-3.2-3.2-6.4-3.2-12.8-3.2zM512 156.8c-19.2 0-32 12.8-32 32v195.2c0 19.2 12.8 32 32 32s32-12.8 32-32v-195.2c0-19.2-12.8-32-32-32zM35.2 304c-6.4 0-16 3.2-19.2 6.4-12.8 12.8-16 32-3.2 44.8l115.2 140.8c12.8 12.8 32 16 44.8 3.2s16-32 3.2-44.8l-115.2-137.6c-6.4-6.4-16-12.8-25.6-12.8zM240 195.2c-3.2 0-9.6 0-12.8 3.2-16 6.4-22.4 25.6-16 41.6l89.6 182.4c6.4 16 25.6 22.4 41.6 16s22.4-25.6 16-41.6l-89.6-182.4c-6.4-12.8-19.2-19.2-28.8-19.2zM512 156.8c-19.2 0-32 12.8-32 32v195.2c0 19.2 12.8 32 32 32s32-12.8 32-32v-195.2c0-19.2-12.8-32-32-32z" />
<glyph unicode="&#xe665;" glyph-name="OK" d="M416-38.4c-9.6 0-16 3.2-22.4 9.6l-278.4 268.8c-12.8 12.8-12.8 32 0 44.8s32 12.8 44.8 0l252.8-246.4 451.2 521.6c9.6 12.8 32 16 44.8 6.4s16-32 6.4-44.8l-473.6-547.2c-6.4-6.4-12.8-9.6-25.6-12.8 3.2 0 0 0 0 0z" />
<glyph unicode="&#xe666;" glyph-name="report" d="M512 76.8c-115.2 0-208 92.8-208 208s92.8 208 208 208 208-92.8 208-208-92.8-208-208-208zM512 460.8c-96 0-176-80-176-176s80-176 176-176 176 80 176 176-80 176-176 176zM496 396.8h32v-160h-32zM496 201.6h32v-32h-32z" />
<glyph unicode="&#xe667;" glyph-name="report1" d="M512-118.4c-275.2 0-502.4 224-502.4 502.4s227.2 502.4 502.4 502.4 502.4-224 502.4-502.4-227.2-502.4-502.4-502.4zM512 809.6c-233.6 0-425.6-192-425.6-425.6s192-425.6 425.6-425.6 425.6 192 425.6 425.6-192 425.6-425.6 425.6zM473.6 656h76.8v-387.2h-76.8zM473.6 179.2h76.8v-76.8h-76.8z" />
<glyph unicode="&#xe668;" glyph-name="user" d="M512-128c-281.6 0-512 230.4-512 512s230.4 512 512 512 512-230.4 512-512-230.4-512-512-512zM512 832c-246.4 0-448-201.6-448-448s201.6-448 448-448 448 201.6 448 448-201.6 448-448 448zM780.8 121.6c-28.8 22.4-70.4 38.4-128 57.6-22.4 6.4-16 44.8-16 44.8 0 3.2 0 6.4 3.2 6.4l3.2 3.2c9.6 19.2 12.8 25.6 28.8 41.6 0 0 3.2 3.2 6.4 3.2 9.6 9.6 25.6 19.2 35.2 41.6s16 35.2 16 54.4c0 16-3.2 28.8-6.4 38.4-3.2 6.4-3.2 16 0 25.6 19.2 70.4 9.6 140.8-25.6 192-41.6 57.6-121.6 86.4-182.4 86.4s-144-28.8-182.4-86.4c-35.2-51.2-44.8-121.6-25.6-192 3.2-9.6 3.2-19.2 0-28.8s-6.4-19.2-3.2-35.2c0-19.2 6.4-32 16-54.4 6.4-19.2 22.4-28.8 32-38.4 3.2 0 3.2-3.2 3.2-3.2 16-19.2 19.2-22.4 28.8-41.6l3.2-3.2c0-3.2 0-3.2 3.2-6.4 0 0 6.4-38.4-16-44.8-57.6-16-96-35.2-128-57.6-12.8-9.6-16-28.8-6.4-44.8 0-12.8 9.6-16 19.2-16 6.4 0 12.8 3.2 19.2 6.4 25.6 16 57.6 32 108.8 48 64 19.2 67.2 86.4 60.8 121.6-3.2 6.4-3.2 12.8-6.4 19.2l-3.2 3.2c-12.8 25.6-16 35.2-41.6 60.8-3.2 3.2-6.4 3.2-6.4 6.4-3.2 3.2-12.8 9.6-16 16-9.6 19.2-9.6 22.4-9.6 28.8s0 9.6 3.2 19.2c6.4 19.2 3.2 41.6 0 60.8-16 51.2-9.6 102.4 16 137.6 25.6 38.4 86.4 60.8 131.2 60.8s105.6-22.4 131.2-60.8c25.6-35.2 32-86.4 16-137.6-6.4-19.2-6.4-41.6 0-64 3.2-6.4 3.2-9.6 3.2-16s-3.2-9.6-9.6-32l-16-16c-3.2-3.2-6.4-3.2-9.6-9.6-22.4-22.4-28.8-35.2-38.4-57.6l-3.2-3.2c-3.2-6.4-6.4-12.8-6.4-22.4-6.4-32-3.2-102.4 60.8-118.4 51.2-16 83.2-28.8 108.8-48 6.4-3.2 12.8-6.4 19.2-6.4 9.6 0 19.2 3.2 25.6 12.8 3.2 19.2 0 38.4-16 48z" />
<glyph unicode="&#xe669;" glyph-name="icon-yellow" d="M857.6 624v70.4c0 76.8-54.4 137.6-124.8 137.6h-112l-38.4 54.4c-12.8 12.8-32 12.8-44.8 0l-67.2-54.4h-304c-70.4 0-124.8-57.6-124.8-137.6v-688c0-73.6 54.4-134.4 124.8-134.4h688c70.4 0 124.8 57.6 124.8 137.6v480c3.2 76.8-51.2 134.4-121.6 134.4zM726.4 768c35.2 0 64-32 64-70.4v-70.4h-38.4l-96 144h70.4zM553.6 819.2l124.8-195.2h-368l243.2 195.2zM172.8 768h214.4l-172.8-137.6s-6.4-6.4-12.8-6.4h-28.8c-35.2 0-64 32-64 70.4 0 41.6 28.8 73.6 64 73.6zM918.4 176h-182.4c-35.2 0-64 32-64 70.4s28.8 70.4 64 70.4h182.4v-140.8zM918.4 384h-185.6c-70.4 0-124.8-57.6-124.8-137.6 0-70.4 54.4-137.6 124.8-137.6h185.6v-102.4c0-38.4-28.8-70.4-64-70.4h-681.6c-35.2 0-64 32-64 70.4v572.8c19.2-12.8 41.6-19.2 64-19.2h678.4c35.2 0 64-32 64-70.4l3.2-105.6zM700.8 249.6c0-12.8 6.4-22.4 16-28.8s19.2-6.4 28.8 0c9.6 6.4 16 16 16 28.8s-6.4 22.4-16 28.8c-9.6 6.4-19.2 6.4-28.8 0s-16-19.2-16-28.8z" />
<glyph unicode="&#xe66a;" glyph-name="icon-blue" d="M880 512c9.6-3.2 16-9.6 16-19.2v-540.8c0-9.6-9.6-19.2-22.4-19.2h-723.2c-9.6 3.2-22.4 9.6-22.4 19.2v540.8c0 9.6 6.4 16 16 19.2l316.8-124.8c16-6.4 32-9.6 51.2-9.6 16 0 35.2 3.2 51.2 9.6l316.8 124.8M892.8 579.2c-3.2 0-6.4 0-9.6-3.2l-336-134.4c-22.4-9.6-48-9.6-70.4 0l-336 134.4c-3.2 0-6.4 3.2-9.6 3.2h-3.2c-35.2-3.2-64-32-64-67.2v-572.8c0-35.2 32-67.2 70.4-67.2h752c38.4 0 70.4 28.8 70.4 67.2v572.8c0 35.2-28.8 64-64 67.2zM614.4 118.4c12.8 0 25.6-12.8 25.6-25.6s-12.8-25.6-25.6-25.6h-76.8v-54.4c0-12.8-12.8-22.4-25.6-22.4s-25.6 9.6-25.6 22.4v54.4h-76.8c-12.8 0-25.6 12.8-25.6 25.6s12.8 25.6 25.6 25.6h76.8v51.2h-76.8c-12.8 0-25.6 12.8-25.6 25.6s12.8 25.6 25.6 25.6h51.2l-44.8 89.6c-6.4 12.8-3.2 25.6 9.6 32 9.6 6.4 25.6 3.2 32-9.6l54.4-105.6c3.2-3.2 3.2-6.4 3.2-9.6 0 3.2 0 6.4 3.2 9.6l57.6 105.6c6.4 12.8 19.2 16 32 9.6 9.6-6.4 16-22.4 9.6-32l-48-89.6h51.2c12.8 0 25.6-12.8 25.6-25.6s-12.8-25.6-25.6-25.6h-76.8v-51.2h70.4zM768 684.8h-48l-121.6 198.4c-6.4 9.6-22.4 12.8-32 6.4l-416-249.6c-9.6-6.4-12.8-22.4-6.4-32l67.2-108.8 44.8 22.4-51.2 86.4 54.4 35.2v-144h67.2v121.6h396.8v-124.8h67.2v166.4c0 12.8-9.6 22.4-22.4 22.4zM332.8 684.8l230.4 147.2 86.4-144c0-3.2-268.8-3.2-316.8-3.2zM656 528h-268.8c-12.8 0-25.6 12.8-25.6 25.6s12.8 25.6 25.6 25.6h268.8c12.8 0 25.6-12.8 25.6-25.6s-9.6-25.6-25.6-25.6z" />
<glyph unicode="&#xe673;" glyph-name="home-thin" d="M28.8 336c12.8-12.8 35.2-12.8 44.8 0l438.4 435.2 438.4-438.4c12.8-12.8 35.2-12.8 44.8 0 12.8 12.8 12.8 35.2 0 44.8l-483.2 483.2-483.2-483.2c-12.8-12.8-12.8-32 0-41.6zM713.6 736h160v-160c0-19.2 16-32 32-32 19.2 0 32 16 32 32v192c0 9.6-3.2 16-9.6 22.4-9.6 6.4-16 9.6-25.6 9.6h-192c-19.2 0-32-16-32-32 3.2-16 16-32 35.2-32zM131.2 326.4v-377.6c0-19.2 16-32 32-32h227.2c19.2 0 32 16 32 32v137.6h185.6v-137.6c0-19.2 16-32 32-32h220.8c19.2 0 32 16 32 32v377.6c0 19.2-16 32-32 32s-32-16-32-32v-348.8h-156.8v137.6c0 19.2-16 32-32 32h-246.4c-19.2 0-32-16-32-32v-137.6h-169.6v348.8c0 19.2-16 32-32 32s-28.8-16-28.8-32z" />
<glyph unicode="&#xe677;" glyph-name="choose1" d="M723.2-64c-246.4-115.2-544-9.6-659.2 240s-9.6 540.8 236.8 656 544 9.6 659.2-240 9.6-540.8-236.8-656zM329.6 774.4c-217.6-99.2-310.4-358.4-208-572.8s358.4-310.4 576-208c214.4 102.4 310.4 358.4 208 576-102.4 214.4-361.6 307.2-576 204.8zM681.6 19.2c-201.6-92.8-438.4-6.4-534.4 192-92.8 201.6-6.4 438.4 192 534.4 201.6 92.8 438.4 6.4 534.4-192s9.6-438.4-192-534.4zM348.8 729.6c-188.8-89.6-272-316.8-182.4-508.8s316.8-272 508.8-182.4 272 316.8 182.4 508.8c-89.6 188.8-316.8 272-508.8 182.4zM355.2 716.8l22.4-19.2 28.8 9.6-9.6-25.6 16-25.6-28.8 3.2-16-22.4-9.6 25.6-25.6 9.6 22.4 16zM246.4 627.2l22.4-16 25.6 6.4-9.6-25.6 16-22.4h-28.8l-16-22.4-6.4 25.6-28.8 9.6 25.6 16zM179.2 512l22.4-19.2 25.6 9.6-9.6-25.6 16-25.6-25.6 3.2-19.2-22.4-6.4 25.6-25.6 9.6 22.4 16zM614.4 716.8l22.4-19.2 28.8 9.6-12.8-28.8 16-22.4-25.6 3.2-19.2-25.6-6.4 28.8-25.6 9.6 22.4 16zM486.4 739.2l22.4-16 25.6 6.4-9.6-25.6 16-22.4h-28.8l-16-22.4-6.4 28.8-28.8 9.6 25.6 12.8zM668.8 51.2v25.6l22.4 16-25.6 9.6-6.4 28.8-19.2-22.4h-25.6l16-22.4-9.6-25.6 25.6 6.4zM531.2 22.4v28.8l22.4 16-25.6 6.4-6.4 28.8-19.2-22.4h-28.8l16-22.4-9.6-25.6 28.8 6.4zM396.8 44.8l3.2 28.8 22.4 16-25.6 9.6-9.6 25.6-16-22.4h-28.8l16-22.4-9.6-25.6 28.8 9.6zM835.2 249.6v28.8l22.4 16-25.6 6.4-9.6 28.8-16-22.4h-28.8l16-22.4-9.6-25.6 28.8 6.4zM771.2 134.4v28.8l22.4 16-25.6 6.4-9.6 28.8-16-22.4h-28.8l16-22.4-9.6-25.6 28.8 6.4zM352 339.2l-22.4 44.8-99.2-48c-9.6-6.4-19.2-9.6-25.6-12.8l-9.6 22.4c6.4 3.2 16 6.4 25.6 9.6l96 44.8 25.6 12.8c3.2-6.4 6.4-12.8 9.6-22.4l22.4-48c3.2-9.6 6.4-12.8 9.6-19.2-6.4-3.2-12.8-3.2-22.4-9.6l-99.2-48 22.4-41.6c3.2-6.4 6.4-9.6 9.6-6.4 6.4 0 19.2 6.4 54.4 22.4 38.4 19.2 48 25.6 51.2 32 0 6.4-3.2 12.8-9.6 32 9.6 0 16 0 25.6 3.2 6.4-19.2 9.6-22.4 9.6-28.8 3.2-22.4-3.2-28.8-67.2-57.6-41.6-22.4-60.8-28.8-70.4-28.8s-12.8 3.2-19.2 16l-41.6 86.4c-6.4 12.8-6.4 16-9.6 19.2l25.6 12.8c3.2-6.4 3.2-12.8 9.6-22.4l6.4-12.8 92.8 48zM444.8 355.2l-9.6-3.2c-6.4-3.2-9.6-3.2-12.8-6.4l-9.6 22.4c6.4 3.2 9.6 3.2 16 6.4l16 6.4c6.4 3.2 9.6 6.4 16 6.4 3.2-6.4 3.2-12.8 9.6-22.4l19.2-44.8s3.2 0 12.8-3.2c16-3.2 28.8 0 57.6 12.8 12.8 6.4 28.8 12.8 44.8 22.4 12.8 6.4 19.2 9.6 32 19.2 0-9.6 0-12.8 3.2-25.6l-70.4-35.2c-38.4-19.2-51.2-19.2-67.2-16-9.6 3.2-12.8 3.2-16 3.2s-6.4-6.4-9.6-16c0 0-3.2-6.4-3.2-16l-25.6 9.6c0 3.2 0 3.2 6.4 12.8 3.2 6.4 9.6 19.2 12.8 22.4l-22.4 44.8zM393.6 444.8c22.4-6.4 35.2-9.6 51.2-19.2l-9.6-22.4c-6.4 3.2-6.4 3.2-16 6.4s-19.2 9.6-35.2 12.8l9.6 22.4zM476.8 438.4c0-9.6 0-12.8-3.2-25.6-6.4 3.2-9.6 3.2-22.4 3.2 6.4 22.4 6.4 35.2 3.2 57.6l22.4 6.4v-19.2l16 6.4-3.2 6.4c-3.2 9.6-3.2 9.6-9.6 16l22.4 9.6c3.2-6.4 3.2-9.6 6.4-16l3.2-6.4 25.6 12.8c6.4 3.2 9.6 6.4 16 9.6l9.6-22.4c-6.4-3.2-9.6-3.2-16-6.4l-25.6-12.8 9.6-19.2 35.2 16c6.4 3.2 9.6 6.4 16 9.6l9.6-22.4c-6.4 0-9.6-3.2-16-6.4l-22.4-9.6 19.2-38.4c3.2-6.4 3.2-6.4 12.8-3.2 6.4 3.2 6.4 3.2 6.4 6.4s0 9.6-9.6 22.4c9.6 0 12.8 0 22.4 3.2 12.8-35.2 12.8-41.6-12.8-54.4-12.8-6.4-16-6.4-19.2-6.4-6.4 0-9.6 0-12.8 6.4l-25.6 54.4-16-6.4c9.6-25.6 9.6-32 9.6-44.8 0-9.6-3.2-19.2-9.6-28.8-3.2-3.2-3.2-6.4-9.6-12.8-6.4 3.2-12.8 6.4-22.4 9.6 12.8 12.8 16 22.4 19.2 32 0 9.6 0 16-6.4 35.2l-16-6.4c-6.4-3.2-9.6-6.4-16-9.6l-9.6 22.4h3.2c6.4 3.2 9.6 3.2 12.8 6.4l38.4 16-9.6 19.2-25.6-9.6zM742.4 572.8c9.6 3.2 12.8 6.4 16 9.6 3.2-6.4 3.2-9.6 6.4-19.2l28.8-60.8c3.2-9.6 6.4-12.8 9.6-19.2l-22.4-9.6-6.4 12.8-48-22.4 19.2-38.4c6.4-12.8 9.6-16 12.8-22.4l-25.6-12.8c-3.2 6.4-6.4 12.8-9.6 25.6l-19.2 35.2-48-22.4 6.4-12.8-22.4-9.6c-3.2 6.4-3.2 12.8-9.6 19.2l-28.8 60.8c-3.2 6.4-6.4 9.6-9.6 16 6.4 3.2 9.6 3.2 19.2 6.4l51.2 25.6-6.4 12.8c-3.2 9.6-6.4 16-12.8 22.4l28.8 9.6c3.2-6.4 3.2-12.8 9.6-22.4l6.4-12.8 54.4 28.8zM675.2 515.2l-48-22.4 19.2-41.6 48 22.4-19.2 41.6zM716.8 483.2l48 22.4-19.2 41.6-48-22.4 19.2-41.6z" />
<glyph unicode="&#xe678;" glyph-name="xiugaimima" horiz-adv-x="1059" d="M1059.31-128h-1059.31v776.828h176.552v247.172h706.207v-247.172h176.552v-776.828zM776.828 790.069h-494.345v-141.241h494.345v141.241zM953.379 542.897h-847.448v-564.966h847.448v564.966zM600.276 48.552h-141.241v317.793h141.241v-317.793z" />
<glyph unicode="&#xe679;" glyph-name="jibenxinxi" d="M0-128v1024h1024v-1024h-1024zM921.6 793.6h-819.2v-819.2h819.2v819.2zM580.267 520.533h-375.467v102.4h375.467v-102.4zM819.2 315.733h-614.4v102.4h614.4v-102.4zM819.2 110.933h-614.4v102.4h614.4v-102.4z" />
<glyph unicode="&#xe67a;" glyph-name="menu-message-thin" d="M972.8 3.2h-921.6c-25.6 0-48 22.4-48 48v614.4c0 25.6 22.4 48 48 48h921.6c25.6 0 48-22.4 48-48v-611.2c0-28.8-22.4-51.2-48-51.2zM67.2 67.2h889.6v579.2h-889.6v-579.2zM339.2 320h-160c-25.6 0-48 22.4-48 48v160c0 25.6 22.4 48 48 48h160c25.6 0 48-22.4 48-48v-160c0-25.6-22.4-48-48-48zM195.2 384h128v128h-128v-128zM864 256h-355.2c-19.2 0-32 12.8-32 32s12.8 32 32 32h355.2c19.2 0 32-12.8 32-32s-12.8-32-32-32zM864 128h-534.4c-19.2 0-32 12.8-32 32s12.8 32 32 32h534.4c19.2 0 32-12.8 32-32s-12.8-32-32-32z" />
<glyph unicode="&#xe67b;" glyph-name="menu-lock-thin" d="M972.8 499.2h-140.8v57.6c0 176-144 320-320 320s-320-144-320-320v-57.6h-140.8c-25.6 0-48-19.2-48-41.6v-537.6c0-22.4 22.4-41.6 48-41.6h921.6c25.6 0 48 19.2 48 41.6v537.6c0 22.4-22.4 41.6-48 41.6zM256 556.8c0 140.8 115.2 256 256 256s256-115.2 256-256v-57.6h-512v57.6zM956.8-64h-889.6v508.8h889.6v-508.8zM579.2 262.4c0 35.2-28.8 64-64 64s-64-28.8-64-64c0-22.4 12.8-44.8 32-54.4v-156.8h64v156.8c19.2 9.6 32 32 32 54.4z" />
<glyph unicode="&#xe67c;" glyph-name="rob-icon-plus" d="M5.632 384c0 27.136 20.48 47.616 47.616 47.616h917.504c27.136 0 47.616-20.48 47.616-47.616s-20.48-47.616-47.616-47.616h-917.504c-27.136 0-47.616 20.48-47.616 47.616zM512 890.368c27.136 0 47.616-20.48 47.616-47.616v-917.504c0-27.136-20.48-47.616-47.616-47.616s-47.616 20.48-47.616 47.616v917.504c0 27.136 20.48 47.616 47.616 47.616z" />
<glyph unicode="&#xe67d;" glyph-name="open1" d="M2.56 672.256c0 25.6 22.528 48.128 48.128 48.128h704c25.6 0 48.128-22.528 48.128-48.128s-22.528-48.128-48.128-48.128h-704c-26.112 0-48.128 22.528-48.128 48.128zM2.56 384c0 25.6 22.528 48.128 48.128 48.128h704c25.6 0 48.128-22.528 48.128-48.128s-22.528-48.128-48.128-48.128h-704c-26.112 0-48.128 22.528-48.128 48.128zM2.56 96.256c0 25.6 22.528 48.128 48.128 48.128h704c25.6 0 48.128-22.528 48.128-48.128s-22.528-48.128-48.128-48.128h-704c-26.112 0-48.128 22.528-48.128 48.128zM898.56 288.256v182.272c0 15.872 19.456 22.528 28.672 12.8l89.6-89.6c6.656-6.144 6.656-15.872 0-22.528l-89.6-89.6c-12.8-9.728-28.672-3.072-28.672 6.656z" />
<glyph unicode="&#xe67e;" glyph-name="angle-down" horiz-adv-x="1027" d="M998.323 576.578l-462.187-432.915c-6.162-5.649-13.866-8.73-21.569-8.73h-2.054c-7.703 0-15.406 3.081-21.569 8.73l-461.673 432.915c-13.352 12.325-13.866 33.38-1.541 46.732s33.38 13.866 46.732 1.541l439.591-411.86 439.591 411.86c13.352 12.325 34.407 11.811 46.732-1.541 11.811-13.352 10.784-34.407-2.054-46.732z" />
<glyph unicode="&#xe67f;" glyph-name="angle-up" horiz-adv-x="1027" d="M998.323 191.936l-461.673 432.915c-6.162 5.649-13.866 8.73-21.569 8.73h-2.054c-7.703 0-15.406-3.081-21.569-8.73l-461.673-432.915c-13.352-12.325-13.866-33.38-1.541-46.732s33.38-13.866 46.732-1.541l439.591 411.86 439.591-411.86c13.352-12.325 34.407-11.811 46.732 1.541 11.298 13.352 10.271 33.894-2.568 46.732z" />
</font>
</defs>
</svg>
