<?xml version="1.0" standalone="no"?>
<!DOCTYPE svg PUBLIC "-//W3C//DTD SVG 1.1//EN" "http://www.w3.org/Graphics/SVG/1.1/DTD/svg11.dtd" >
<svg xmlns="http://www.w3.org/2000/svg">
<metadata>Generated by IcoMoon</metadata>
<defs>
<font id="robot-icon" horiz-adv-x="1024">
<font-face units-per-em="1024" ascent="960" descent="-64" />
<missing-glyph horiz-adv-x="1024" />
<glyph unicode="&#x20;" horiz-adv-x="512" d="" />
<glyph unicode="&#xe900;" glyph-name="bell" d="M844.8 115.2h-665.6c-19.2 0-35.2 9.6-41.6 25.6-9.6 16-6.4 35.2 3.2 51.2 25.6 35.2 44.8 70.4 57.6 108.8 9.6 28.8 16 57.6 22.4 86.4 3.2 22.4 3.2 172.8 3.2 236.8-3.2 128 60.8 224 185.6 268.8 9.6 3.2 16 6.4 19.2 9.6l9.6 9.6c6.4 9.6 9.6 12.8 16 19.2s12.8 12.8 22.4 16c6.4 3.2 19.2 9.6 38.4 9.6h6.4c19.2 0 28.8-6.4 35.2-9.6 9.6-3.2 16-9.6 22.4-16s6.4-9.6 16-19.2c3.2-3.2 6.4-9.6 9.6-9.6 3.2-3.2 9.6-6.4 19.2-9.6 124.8-44.8 188.8-140.8 185.6-272 0-64 0-211.2 3.2-236.8 3.2-28.8 9.6-57.6 19.2-86.4 12.8-38.4 32-73.6 57.6-112 9.6-16 12.8-35.2 3.2-51.2-12.8-9.6-32-19.2-48-19.2zM211.2 179.2h601.6c-22.4 32-38.4 67.2-51.2 102.4-12.8 32-19.2 64-22.4 99.2-3.2 25.6-3.2 140.8-3.2 243.2 3.2 128-76.8 185.6-140.8 211.2-16 6.4-32 12.8-44.8 25.6-3.2 3.2-9.6 9.6-12.8 16-6.4 6.4-6.4 9.6-9.6 12.8l-6.4 6.4c-3.2 0-3.2 3.2-6.4 3.2s-6.4 0-6.4-3.2c-3.2 0-3.2-3.2-6.4-3.2-3.2-3.2-6.4-6.4-9.6-12.8-6.4-6.4-12.8-12.8-12.8-16-12.8-12.8-28.8-22.4-44.8-25.6-64-22.4-144-80-140.8-208 0-105.6 0-220.8-3.2-243.2-3.2-35.2-12.8-67.2-25.6-99.2-16-41.6-35.2-76.8-54.4-108.8zM512-64c-60.8 0-121.6 28.8-156.8 76.8-9.6 12.8-6.4 35.2 6.4 44.8s35.2 6.4 44.8-6.4c25.6-32 64-51.2 105.6-51.2 38.4 0 80 19.2 105.6 51.2 12.8 12.8 32 16 44.8 3.2s16-32 3.2-44.8c-38.4-44.8-96-73.6-153.6-73.6z" />
<glyph unicode="&#xe901;" glyph-name="calendar" d="M896-32h-768c-35.2 0-64 28.8-64 64v771.2c0 3.2 3.2 9.6 3.2 12.8l32 32c12.8 6.4 28.8 0 28.8-12.8v-787.2c0-9.6 6.4-16 16-16h736c9.6 0 16 6.4 16 16v787.2c0 12.8 16 22.4 28.8 12.8l32-32c0-6.4 3.2-9.6 3.2-12.8v-771.2c0-35.2-28.8-64-64-64zM64 736h896v-64h-896zM272 768h-32c-9.6 0-16 6.4-16 16v128c0 9.6 6.4 16 16 16h32c9.6 0 16-6.4 16-16v-128c0-9.6-6.4-16-16-16zM400 768h-32c-9.6 0-16 6.4-16 16v128c0 9.6 6.4 16 16 16h32c9.6 0 16-6.4 16-16v-128c0-9.6-6.4-16-16-16zM528 768h-32c-9.6 0-16 6.4-16 16v128c0 9.6 6.4 16 16 16h32c9.6 0 16-6.4 16-16v-128c0-9.6-6.4-16-16-16zM656 768h-32c-9.6 0-16 6.4-16 16v128c0 9.6 6.4 16 16 16h32c9.6 0 16-6.4 16-16v-128c0-9.6-6.4-16-16-16zM784 768h-32c-9.6 0-16 6.4-16 16v128c0 9.6 6.4 16 16 16h32c9.6 0 16-6.4 16-16v-128c0-9.6-6.4-16-16-16zM464 512h-96c-9.6 0-16-6.4-16-16v-32c0-9.6 6.4-16 16-16h48v-272c0-9.6 6.4-16 16-16h32c9.6 0 16 6.4 16 16v320c0 9.6-6.4 16-16 16zM656 512h-96c-9.6 0-16-6.4-16-16v-32c0-9.6 6.4-16 16-16h48v-272c0-9.6 6.4-16 16-16h32c9.6 0 16 6.4 16 16v320c0 9.6-6.4 16-16 16z" />
<glyph unicode="&#xe902;" glyph-name="check" d="M723.2 96h-422.4c-99.2 0-182.4 73.6-182.4 166.4s80 166.4 182.4 166.4h67.2c-12.8 76.8-38.4 128-60.8 169.6-19.2 38.4-35.2 70.4-35.2 112 3.2 137.6 108.8 249.6 240 249.6 128 0 233.6-115.2 236.8-262.4 0-35.2-16-67.2-35.2-105.6-22.4-41.6-48-96-60.8-166.4h67.2c99.2 0 182.4-73.6 182.4-166.4s-80-163.2-179.2-163.2zM300.8 361.6c-64 0-118.4-44.8-118.4-102.4s54.4-99.2 118.4-99.2h419.2c64 0 118.4 44.8 118.4 102.4s-51.2 102.4-118.4 102.4h-86.4c-12.8 0-25.6 6.4-35.2 16s-12.8 25.6-12.8 38.4c12.8 92.8 44.8 156.8 70.4 204.8 16 32 28.8 57.6 28.8 73.6-3.2 112-76.8 198.4-172.8 198.4s-172.8-83.2-172.8-188.8c0-22.4 12.8-48 28.8-80 25.6-48 57.6-112 67.2-208 0-12.8-3.2-28.8-12.8-38.4s-22.4-16-35.2-16h-86.4zM854.4-64h-684.8c-25.6 0-48 22.4-48 48s22.4 48 48 48h684.8c25.6 0 48-22.4 48-48s-19.2-48-48-48z" />
<glyph unicode="&#xe903;" glyph-name="cny-square" d="M896 918.4c0 22.4-19.2 41.6-41.6 41.6h-684.8c-22.4 0-41.6-19.2-41.6-41.6v-937.6c0-25.6 19.2-41.6 41.6-41.6 9.6 0 19.2 3.2 25.6 9.6 121.6 112 179.2 172.8 316.8 172.8 140.8 0 249.6-105.6 316.8-169.6 9.6-9.6 19.2-12.8 28.8-12.8 22.4 0 41.6 16 41.6 41.6l-3.2 937.6zM512 182.4c-144 0-220.8-60.8-320-153.6v864h640v-864c-67.2 70.4-179.2 153.6-320 153.6zM662.4 758.4c-12.8 12.8-32 12.8-44.8 0l-105.6-105.6-105.6 105.6c-12.8 12.8-32 12.8-44.8 0s-12.8-32 0-44.8l105.6-105.6h-83.2c-19.2 0-32-12.8-32-32s12.8-32 32-32h96v-64h-96c-19.2 0-32-12.8-32-32s12.8-32 32-32h96v-96c0-19.2 12.8-32 32-32s32 12.8 32 32v96h96c19.2 0 32 12.8 32 32s-12.8 32-32 32h-96v64h96c19.2 0 32 12.8 32 32s-12.8 32-32 32h-83.2l105.6 105.6c12.8 12.8 12.8 32 0 44.8z" />
<glyph unicode="&#xe904;" glyph-name="line-chart" d="M396.8 716.8l-198.4-262.4c-9.6-12.8-32-16-44.8-6.4s-16 32-6.4 44.8l198.4 262.4c9.6 12.8 32 16 44.8 6.4s16-32 6.4-44.8zM870.4 457.6l-160-166.4c-12.8-12.8-32-12.8-44.8 0s-12.8 32 0 44.8l160 166.4c12.8 12.8 32 12.8 44.8 0 9.6-12.8 12.8-32 0-44.8zM473.6 748.8l169.6-422.4c3.2-9.6 0-22.4-9.6-25.6l-22.4-9.6c-9.6-3.2-22.4 0-25.6 9.6l-169.6 422.4c-3.2 9.6 0 22.4 9.6 25.6l22.4 9.6c9.6 6.4 19.2 0 25.6-9.6zM960 64h-896c-19.2 0-32 12.8-32 32s12.8 32 32 32h896c19.2 0 32-12.8 32-32 0-16-12.8-32-32-32zM128 320c-54.4 0-96 41.6-96 96s41.6 96 96 96 96-41.6 96-96-41.6-96-96-96zM128 448c-19.2 0-32-12.8-32-32s12.8-32 32-32 32 12.8 32 32-12.8 32-32 32zM416 704c-54.4 0-96 41.6-96 96s41.6 96 96 96 96-41.6 96-96-41.6-96-96-96zM416 832c-19.2 0-32-12.8-32-32s12.8-32 32-32 32 12.8 32 32-12.8 32-32 32zM640 160c-54.4 0-96 41.6-96 96s41.6 96 96 96 96-41.6 96-96-41.6-96-96-96zM640 288c-19.2 0-32-12.8-32-32s12.8-32 32-32 32 12.8 32 32-12.8 32-32 32zM896 448c-54.4 0-96 41.6-96 96s41.6 96 96 96 96-41.6 96-96-41.6-96-96-96zM896 576c-19.2 0-32-12.8-32-32s12.8-32 32-32 32 12.8 32 32-12.8 32-32 32z" />
<glyph unicode="&#xe905;" glyph-name="menu-left" d="M976 688h-704c-25.6 0-48 22.4-48 48s22.4 48 48 48h704c25.6 0 48-22.4 48-48s-22.4-48-48-48zM976 400h-704c-25.6 0-48 22.4-48 48s22.4 48 48 48h704c25.6 0 48-22.4 48-48s-22.4-48-48-48zM976 112h-704c-25.6 0-48 22.4-48 48s22.4 48 48 48h704c25.6 0 48-22.4 48-48s-22.4-48-48-48zM99.2 345.6l-89.6 89.6c-6.4 6.4-6.4 16 0 22.4l89.6 89.6c9.6 9.6 28.8 3.2 28.8-12.8v-182.4c0-9.6-16-16-28.8-6.4z" />
<glyph unicode="&#xe906;" glyph-name="cny-alt-o" d="M512 864c-249.6 0-441.6-115.2-448-265.6v-390.4c0-153.6 195.2-272 448-272s448 118.4 448 272v384c0 153.6-195.2 272-448 272zM512 800c208 0 384-96 384-208s-176-208-384-208-384 96-384 208 176 208 384 208zM896 208c0-112-176-208-384-208s-384 96-384 208v51.2c76.8-80 217.6-131.2 384-131.2s307.2 51.2 384 131.2v-51.2zM896 400c0-112-176-208-384-208s-384 96-384 208v51.2c76.8-80 217.6-131.2 384-131.2s307.2 51.2 384 131.2v-51.2zM608 576c16 0 32 16 32 32 0 19.2-12.8 32-32 32h-41.6l70.4 70.4c12.8 12.8 12.8 32 0 44.8s-32 12.8-44.8 0l-80-83.2-80 80c-12.8 12.8-32 12.8-44.8 0-12.8-9.6-12.8-32 0-44.8l67.2-67.2h-38.4c-19.2 0-32-12.8-32-32s12.8-32 32-32h64v-32h-64c-19.2 0-32-12.8-32-32s12.8-32 32-32h64v-32c0-19.2 12.8-32 32-32s32 12.8 32 32v32h64c16 0 32 16 32 32 0 19.2-12.8 32-32 32h-64v32h64z" />
<glyph unicode="&#xe907;" glyph-name="plus-alt" d="M512 192c-25.6 0-48 22.4-48 48v416c0 25.6 22.4 48 48 48s48-22.4 48-48v-416c0-25.6-22.4-48-48-48zM256 448c0 25.6 22.4 48 48 48h416c25.6 0 48-22.4 48-48s-22.4-48-48-48h-416c-25.6 0-48 22.4-48 48zM512-64c-281.6 0-512 230.4-512 512s230.4 512 512 512 512-230.4 512-512-230.4-512-512-512zM512 864c-230.4 0-416-185.6-416-416s185.6-416 416-416 416 185.6 416 416-185.6 416-416 416z" />
<glyph unicode="&#xe908;" glyph-name="plus-square" d="M960 960h-912c-25.6 0-48-22.4-48-48v-928c0-25.6 22.4-48 48-48h928c25.6 0 48 22.4 48 48v912c0 35.2-28.8 64-64 64zM736 384h-160v-160c0-35.2-28.8-64-64-64s-64 28.8-64 64v160h-160c-35.2 0-64 28.8-64 64s28.8 64 64 64h160v160c0 35.2 28.8 64 64 64s64-28.8 64-64v-160h160c35.2 0 64-28.8 64-64s-28.8-64-64-64z" />
<glyph unicode="&#xe909;" glyph-name="plus" d="M512 32c-25.6 0-48 22.4-48 48v736c0 25.6 22.4 48 48 48s48-22.4 48-48v-736c0-25.6-22.4-48-48-48zM96 448c0 25.6 22.4 48 48 48h736c25.6 0 48-22.4 48-48s-22.4-48-48-48h-736c-25.6 0-48 22.4-48 48z" />
<glyph unicode="&#xe90a;" glyph-name="settings" d="M512 608c89.6 0 160-70.4 160-160s-70.4-160-160-160-160 70.4-160 160 70.4 160 160 160zM512 672c-124.8 0-224-99.2-224-224s99.2-224 224-224 224 99.2 224 224-99.2 224-224 224zM576 896v-76.8c0-32 19.2-64 51.2-73.6 3.2-3.2 9.6-3.2 12.8-6.4 9.6-3.2 22.4-6.4 32-6.4 22.4 0 41.6 9.6 57.6 22.4l54.4 54.4 89.6-89.6-54.4-54.4c-22.4-22.4-28.8-57.6-16-89.6 3.2-3.2 3.2-9.6 6.4-12.8 12.8-32 41.6-51.2 73.6-51.2h76.8v-128h-76.8c-32 0-64-19.2-73.6-51.2-3.2-3.2-3.2-9.6-6.4-12.8-12.8-32-6.4-64 16-89.6l54.4-54.4-89.6-89.6-54.4 54.4c-16 16-35.2 22.4-57.6 22.4-12.8 0-22.4-3.2-32-6.4-3.2-3.2-9.6-3.2-12.8-6.4-32-12.8-51.2-41.6-51.2-73.6v-76.8h-128v76.8c0 32-19.2 64-51.2 73.6-3.2 3.2-9.6 3.2-12.8 6.4-9.6 3.2-22.4 6.4-32 6.4-22.4 0-41.6-9.6-57.6-22.4l-54.4-54.4-89.6 89.6 54.4 54.4c22.4 22.4 28.8 57.6 16 89.6-3.2 3.2-3.2 9.6-6.4 12.8-12.8 32-41.6 51.2-73.6 51.2h-76.8v128h76.8c32 0 64 19.2 73.6 51.2 3.2 3.2 3.2 9.6 6.4 12.8 12.8 32 6.4 64-16 89.6l-54.4 54.4 89.6 89.6 54.4-54.4c16-16 35.2-22.4 57.6-22.4 12.8 0 22.4 3.2 32 6.4 3.2 3.2 9.6 3.2 12.8 6.4 32 12.8 51.2 41.6 51.2 73.6v76.8h128zM624 960h-224c-9.6 0-16-6.4-16-16v-124.8c0-6.4-3.2-12.8-9.6-16s-12.8-3.2-16-6.4h-6.4c-3.2 0-9.6 0-9.6 3.2l-86.4 86.4c-3.2 3.2-6.4 3.2-12.8 3.2s-9.6 0-12.8-3.2l-156.8-156.8c-6.4-6.4-6.4-16 0-22.4l86.4-86.4c3.2-3.2 6.4-12.8 3.2-19.2s-6.4-12.8-6.4-16c-3.2-6.4-9.6-9.6-16-9.6h-124.8c-9.6 0-16-6.4-16-16v-224c0-9.6 6.4-16 16-16h124.8c6.4 0 12.8-3.2 16-9.6s3.2-12.8 6.4-16c3.2-6.4 0-12.8-3.2-19.2l-86.4-86.4c-6.4-6.4-6.4-16 0-22.4l156.8-156.8c3.2-3.2 6.4-3.2 12.8-3.2s9.6 0 12.8 3.2l86.4 86.4c3.2 3.2 6.4 3.2 9.6 3.2h6.4c6.4-3.2 12.8-6.4 16-6.4 6.4-3.2 9.6-9.6 9.6-16v-124.8c0-9.6 6.4-16 16-16h224c9.6 0 16 6.4 16 16v124.8c0 6.4 3.2 12.8 9.6 16s12.8 3.2 16 6.4h6.4c3.2 0 9.6 0 9.6-3.2l86.4-86.4c3.2-3.2 6.4-3.2 12.8-3.2s9.6 0 12.8 3.2l156.8 156.8c6.4 6.4 6.4 16 0 22.4l-86.4 86.4c-3.2 3.2-6.4 12.8-3.2 19.2s6.4 12.8 6.4 16c3.2 6.4 9.6 9.6 16 9.6h124.8c9.6 0 16 6.4 16 16v224c0 9.6-6.4 16-16 16h-124.8c-6.4 0-12.8 3.2-16 9.6s-3.2 12.8-6.4 16c-3.2 6.4 0 12.8 3.2 19.2l86.4 86.4c6.4 6.4 6.4 16 0 22.4l-156.8 156.8c-3.2 3.2-6.4 3.2-12.8 3.2s-9.6 0-12.8-3.2l-86.4-86.4c-3.2-3.2-6.4-3.2-9.6-3.2h-6.4c-6.4 3.2-12.8 6.4-16 6.4-6.4 3.2-9.6 9.6-9.6 16v124.8c0 9.6-6.4 16-16 16z" />
<glyph unicode="&#xe90b;" glyph-name="angle-down" horiz-adv-x="1027" d="M33.745 684.774c-9.599 0-19.198-3.2-25.597-9.599-12.799-12.799-9.599-31.997 3.2-44.795l470.349-409.555c19.198-15.998 44.795-15.998 63.993 0l470.349 406.356c12.799 12.799 15.998 31.997 3.2 44.795s-31.997 15.998-44.795 3.2l-460.75-396.757-457.55 399.956c-6.399 3.2-15.998 6.399-22.398 6.399z" />
<glyph unicode="&#xe90c;" glyph-name="caret-down" d="M1001.6 720l-476.8-566.4c-6.4-6.4-19.2-6.4-25.6 0l-476.8 566.4c-9.6 9.6 0 25.6 12.8 25.6h953.6c12.8 3.2 22.4-12.8 12.8-25.6z" />
<glyph unicode="&#xe90d;" glyph-name="choose-alt" d="M512-64c-281.6 0-512 230.4-512 512s230.4 512 512 512 512-230.4 512-512-230.4-512-512-512zM512 928c-265.6 0-480-214.4-480-480s214.4-480 480-480 480 214.4 480 480-214.4 480-480 480zM512 224c-124.8 0-224 99.2-224 224s99.2 224 224 224 224-99.2 224-224-99.2-224-224-224z" />
<glyph unicode="&#xe90e;" glyph-name="choose-square" d="M809.6 0h-697.6c-48 0-83.2 38.4-83.2 83.2v729.6c0 44.8 38.4 83.2 83.2 83.2h694.4c48 0 83.2-38.4 83.2-83.2v-19.2c0-19.2-12.8-32-32-32s-32 12.8-32 32v19.2c0 9.6-9.6 19.2-19.2 19.2h-694.4c-9.6 0-19.2-9.6-19.2-19.2v-726.4c0-9.6 9.6-19.2 19.2-19.2h694.4c9.6 0 19.2 9.6 19.2 19.2v265.6c0 19.2 12.8 32 32 32s32-12.8 32-32v-268.8c3.2-44.8-35.2-83.2-80-83.2zM512 204.8l-211.2 281.6c-9.6 12.8-6.4 35.2 6.4 44.8s35.2 6.4 44.8-6.4l211.2-281.6c9.6-12.8 6.4-35.2-6.4-44.8s-32-6.4-44.8 6.4zM1014.4 675.2l-451.2-480c-12.8-12.8-32-12.8-41.6 0-12.8 12.8-12.8 32 0 44.8l451.2 480c12.8 12.8 32 12.8 41.6 0 12.8-9.6 12.8-32 0-44.8z" />
<glyph unicode="&#xe90f;" glyph-name="close-alt" d="M150.4 809.6c-198.4-198.4-198.4-524.8 0-723.2s524.8-198.4 723.2 0 198.4 524.8 0 723.2-524.8 201.6-723.2 0zM694.4 582.4l-137.6-134.4 134.4-134.4c12.8-12.8 12.8-32 0-44.8s-32-12.8-44.8 0l-134.4 134.4-134.4-134.4c-12.8-12.8-32-12.8-44.8 0s-12.8 32 0 44.8l134.4 134.4-134.4 134.4c-12.8 12.8-12.8 32 0 44.8s32 12.8 44.8 0l134.4-134.4 134.4 134.4c12.8 12.8 32 12.8 44.8 0 12.8-9.6 12.8-32 3.2-44.8z" />
<glyph unicode="&#xe910;" glyph-name="id-card" d="M950.4 832h-876.8c-41.6 0-73.6-32-73.6-73.6v-620.8c0-41.6 32-73.6 73.6-73.6h876.8c41.6 0 73.6 32 73.6 73.6v620.8c0 41.6-32 73.6-73.6 73.6zM960 137.6c0-6.4-3.2-9.6-9.6-9.6h-876.8c-6.4 0-9.6 3.2-9.6 9.6v620.8c0 6.4 3.2 9.6 9.6 9.6h876.8c6.4 0 9.6-3.2 9.6-9.6v-620.8zM412.8 489.6c22.4 22.4 35.2 54.4 35.2 86.4 0 70.4-57.6 128-128 128s-128-57.6-128-128c0-35.2 12.8-64 35.2-86.4-57.6-32-99.2-96-99.2-169.6 0-25.6 6.4-51.2 16-76.8 6.4-12.8 16-19.2 28.8-19.2 3.2 0 9.6 0 12.8 3.2 16 6.4 22.4 25.6 16 41.6s-9.6 32-9.6 51.2c0 70.4 57.6 128 128 128s128-57.6 128-128c0-19.2-3.2-35.2-9.6-51.2s0-35.2 16-41.6c16-6.4 35.2 0 41.6 16 9.6 25.6 16 51.2 16 76.8 0 73.6-41.6 134.4-99.2 169.6zM256 576c0 35.2 28.8 64 64 64s64-28.8 64-64-28.8-64-64-64-64 28.8-64 64zM867.2 608h-227.2c-19.2 0-32-12.8-32-32s12.8-32 32-32h227.2c19.2 0 32 12.8 32 32s-16 32-32 32zM867.2 480h-227.2c-19.2 0-32-12.8-32-32s12.8-32 32-32h227.2c19.2 0 32 12.8 32 32s-16 32-32 32zM867.2 352h-227.2c-19.2 0-32-12.8-32-32s12.8-32 32-32h227.2c19.2 0 32 12.8 32 32s-16 32-32 32z" />
<glyph unicode="&#xe911;" glyph-name="code" d="M944 800h-864c-25.6 0-48 22.4-48 48s22.4 48 48 48h864c25.6 0 48-22.4 48-48s-22.4-48-48-48zM512 32c-25.6 0-48 22.4-48 48v752h96v-752c0-25.6-22.4-48-48-48z" />
<glyph unicode="&#xe912;" glyph-name="contract" d="M947.2 864c6.4 0 12.8-6.4 12.8-12.8v-809.6c0-6.4-6.4-12.8-12.8-12.8h-691.2v819.2c0 6.4 6.4 12.8 12.8 12.8h678.4zM947.2 928h-681.6c-41.6 0-76.8-35.2-76.8-76.8v-876.8c0-3.2 3.2-6.4 6.4-6.4h748.8c41.6 0 76.8 35.2 76.8 76.8v809.6c3.2 41.6-32 73.6-73.6 73.6zM192 416v-384h-128v384h128zM201.6 480h-144c-32 0-54.4-25.6-54.4-54.4v-400c0-32 25.6-54.4 54.4-54.4h169.6c16 0 28.8 12.8 28.8 28.8v425.6c0 28.8-25.6 54.4-54.4 54.4zM768 640h-320c-19.2 0-32 12.8-32 32s12.8 32 32 32h320c19.2 0 32-12.8 32-32 0-16-12.8-32-32-32zM768 448h-320c-19.2 0-32 12.8-32 32s12.8 32 32 32h320c19.2 0 32-12.8 32-32 0-16-12.8-32-32-32zM640 256h-192c-19.2 0-32 12.8-32 32s12.8 32 32 32h192c19.2 0 32-12.8 32-32 0-16-12.8-32-32-32z" />
<glyph unicode="&#xe913;" glyph-name="delete" d="M150.4 86.4c-19.2 19.2-19.2 48 0 67.2l656 656c19.2 19.2 48 19.2 67.2 0s19.2-48 0-67.2l-656-656c-19.2-19.2-48-19.2-67.2 0zM150.4 809.6c19.2 19.2 48 19.2 67.2 0l656-656c19.2-19.2 19.2-48 0-67.2s-48-19.2-67.2 0l-656 656c-19.2 19.2-19.2 48 0 67.2z" />
<glyph unicode="&#xe914;" glyph-name="edit-sign" d="M364.8 60.8c-6.4 0-9.6 3.2-16 6.4-3.2 3.2-6.4 9.6-6.4 16s3.2 9.6 6.4 16 22.4 9.6 28.8 0c3.2-3.2 6.4-9.6 6.4-16s-3.2-9.6-6.4-16-6.4-6.4-12.8-6.4zM355.2 86.4c-3.2-3.2-3.2-6.4-3.2-9.6s0-6.4 3.2-6.4 9.6-3.2 16 0v0c3.2 3.2 3.2 6.4 3.2 9.6s0 6.4-3.2 6.4c-3.2 6.4-9.6 6.4-16 0zM352.736 86.016l-195.36 189.28 44.512 45.952 195.392-189.248zM64-60.8c-12.8 0-25.6 3.2-32 12.8-12.8 12.8-16 28.8-12.8 44.8v6.4l108.8 294.4c3.2 6.4 6.4 16 12.8 22.4l480 496 252.8-246.4-480-496c-6.4-6.4-12.8-9.6-19.2-12.8l-297.6-121.6h-12.8zM188.8 278.4l-96-259.2 259.2 105.6 432 444.8-160 156.8-435.2-448zM896 592l-252.8 243.2 86.4 92.8c38.4 38.4 96 41.6 128 9.6l128-124.8c16-16 22.4-35.2 22.4-57.6 0-25.6-9.6-51.2-28.8-73.6l-83.2-89.6zM732.8 838.4l160-156.8 41.6 44.8c6.4 6.4 12.8 19.2 12.8 25.6 0 3.2 0 9.6-3.2 12.8l-128 124.8c-6.4 6.4-25.6 6.4-38.4-9.6l-44.8-41.6zM795.616 924.544l181.856-170.944-89.856-95.584-181.856 170.944zM623.264 744.896l181.856-170.976-416.416-442.976-181.856 170.944z" />
<glyph unicode="&#xe915;" glyph-name="edit" d="M364.8 60.8c-6.4 0-9.6 3.2-16 6.4-3.2 3.2-6.4 9.6-6.4 16s3.2 9.6 6.4 16 22.4 9.6 28.8 0c3.2-3.2 6.4-9.6 6.4-16s-3.2-9.6-6.4-16-6.4-6.4-12.8-6.4zM355.2 86.4c-3.2-3.2-3.2-6.4-3.2-9.6s0-6.4 3.2-6.4 9.6-3.2 16 0v0c3.2 3.2 3.2 6.4 3.2 9.6s0 6.4-3.2 6.4c-3.2 6.4-9.6 6.4-16 0zM202.24 319.744l195.392-189.248-44.544-45.984-195.36 189.248zM64-60.8c-12.8 0-25.6 3.2-32 12.8-12.8 12.8-16 28.8-12.8 44.8v6.4l108.8 294.4c3.2 6.4 6.4 16 12.8 22.4l480 496 252.8-246.4-480-496c-6.4-6.4-12.8-9.6-19.2-12.8l-297.6-121.6h-12.8zM188.8 278.4l-96-259.2 259.2 105.6 432 444.8-160 156.8-435.2-448zM896 592l-252.8 243.2 86.4 92.8c38.4 38.4 96 41.6 128 9.6l128-124.8c16-16 22.4-35.2 22.4-57.6 0-25.6-9.6-51.2-28.8-73.6l-83.2-89.6zM732.8 838.4l160-156.8 41.6 44.8c6.4 6.4 12.8 19.2 12.8 25.6 0 3.2 0 9.6-3.2 12.8l-128 124.8c-6.4 6.4-25.6 6.4-38.4-9.6l-44.8-41.6z" />
<glyph unicode="&#xe916;" glyph-name="exchange" d="M278.4 486.4l-272 217.6c-9.6 6.4-9.6 19.2 0 25.6l272 214.4c9.6 9.6 25.6 0 25.6-12.8v-432c0-12.8-16-19.2-25.6-12.8zM976 665.6h-691.2v96h691.2c25.6 0 48-22.4 48-48s-22.4-48-48-48zM745.6-41.6l272 217.6c9.6 6.4 9.6 19.2 0 25.6l-272 214.4c-9.6 9.6-25.6 0-25.6-12.8v-432c0-12.8 16-19.2 25.6-12.8zM48 137.6h691.2v96h-691.2c-25.6 0-48-22.4-48-48s22.4-48 48-48z" />
<glyph unicode="&#xe917;" glyph-name="eye-close" d="M512 422.4c-230.4 0-435.2 86.4-492.8 208-9.6 16-3.2 35.2 12.8 41.6s35.2 0 41.6-16c48-99.2 230.4-172.8 435.2-172.8s387.2 73.6 435.2 172.8c12.8 16 32 22.4 48 16s22.4-25.6 16-41.6c-60.8-124.8-265.6-208-496-208zM988.8 368c-9.6 0-19.2 3.2-25.6 12.8l-115.2 137.6c-12.8 12.8-9.6 35.2 3.2 44.8 12.8 12.8 35.2 9.6 44.8-3.2l115.2-137.6c12.8-12.8 9.6-35.2-3.2-44.8-6.4-6.4-12.8-9.6-19.2-9.6zM784 259.2c-12.8 0-22.4 6.4-28.8 19.2l-89.6 182.4c-6.4 16 0 35.2 16 41.6s35.2 0 41.6-16l89.6-182.4c6.4-16 0-35.2-16-41.6-3.2-3.2-6.4-3.2-12.8-3.2zM512 220.8c-19.2 0-32 12.8-32 32v195.2c0 19.2 12.8 32 32 32s32-12.8 32-32v-195.2c0-19.2-12.8-32-32-32zM35.2 368c-6.4 0-16 3.2-19.2 6.4-12.8 12.8-16 32-3.2 44.8l115.2 140.8c12.8 12.8 32 16 44.8 3.2s16-32 3.2-44.8l-115.2-137.6c-6.4-6.4-16-12.8-25.6-12.8zM240 259.2c-3.2 0-9.6 0-12.8 3.2-16 6.4-22.4 25.6-16 41.6l89.6 182.4c6.4 16 25.6 22.4 41.6 16s22.4-25.6 16-41.6l-89.6-182.4c-6.4-12.8-19.2-19.2-28.8-19.2zM512 220.8c-19.2 0-32 12.8-32 32v195.2c0 19.2 12.8 32 32 32s32-12.8 32-32v-195.2c0-19.2-12.8-32-32-32z" />
<glyph unicode="&#xe918;" glyph-name="eye-open" d="M512 128c-272 0-512 198.4-512 320s240 320 512 320 512-198.4 512-320-240-320-512-320zM512 704c-252.8 0-448-182.4-448-256s198.4-256 448-256 448 182.4 448 256-195.2 256-448 256zM512 243.2c-112 0-204.8 92.8-204.8 204.8s92.8 204.8 204.8 204.8 204.8-92.8 204.8-204.8-89.6-204.8-204.8-204.8zM512 588.8c-80 0-140.8-60.8-140.8-140.8s60.8-140.8 140.8-140.8 140.8 60.8 140.8 140.8-60.8 140.8-140.8 140.8z" />
<glyph unicode="&#xe919;" glyph-name="search-plus" d="M559.332 288.802c-25.569 0-47.943 22.373-47.943 47.943v319.618c0 25.569 22.373 47.943 47.943 47.943 28.766 0 47.943-22.373 47.943-47.943v-319.618c0-25.569-19.177-47.943-47.943-47.943zM351.58 496.554c0 25.569 22.373 47.943 47.943 47.943h319.618c25.569 0 47.943-22.373 47.943-47.943s-22.373-47.943-47.943-47.943h-319.618c-25.569 0-47.943 22.373-47.943 47.943zM559.332 36.303c-255.695 0-463.446 207.752-463.446 463.446 3.196 252.498 207.752 460.25 463.446 460.25s463.446-207.752 463.446-463.446-207.752-460.25-463.446-460.25zM559.332 864.115c-201.36 0-364.365-166.201-364.365-367.561s163.005-367.561 367.561-367.561c201.36 0 367.561 163.005 367.561 367.561-3.196 201.36-169.398 367.561-370.757 367.561zM19.177-49.994c-19.177 19.177-19.177 51.139 0 70.316l214.144 214.144 67.12-67.12-214.144-214.144c-15.981-22.373-47.943-22.373-67.12-3.196z" />
<glyph unicode="&#xe91a;" glyph-name="text" d="M915.2 896c6.4 0 12.8-6.4 12.8-12.8v-870.4c0-6.4-6.4-12.8-12.8-12.8h-806.4c-6.4 0-12.8 6.4-12.8 12.8v870.4c0 6.4 6.4 12.8 12.8 12.8h806.4zM915.2 960h-806.4c-41.6 0-76.8-35.2-76.8-76.8v-870.4c0-41.6 35.2-76.8 76.8-76.8h806.4c41.6 0 76.8 35.2 76.8 76.8v870.4c0 41.6-35.2 76.8-76.8 76.8zM768 704h-512c-19.2 0-32-12.8-32-32s12.8-32 32-32h512c19.2 0 32 12.8 32 32s-12.8 32-32 32zM768 512h-512c-19.2 0-32-12.8-32-32s12.8-32 32-32h512c19.2 0 32 12.8 32 32s-12.8 32-32 32zM768 320h-512c-19.2 0-32-12.8-32-32s12.8-32 32-32h512c19.2 0 32 12.8 32 32s-12.8 32-32 32z" />
<glyph unicode="&#xe91b;" glyph-name="bar-chart-o" d="M128 0c-19.2 0-32 12.8-32 32v832c0 19.2 12.8 32 32 32s32-12.8 32-32v-832c0-16-12.8-32-32-32zM1024 153.6c0-19.2-12.8-32-32-32h-960c-19.2 0-32 12.8-32 32s12.8 32 32 32h960c19.2 0 32-16 32-32zM320 288c-19.2 0-32 12.8-32 32v320c0 19.2 12.8 32 32 32s32-12.8 32-32v-320c0-16-12.8-32-32-32zM480 288c-19.2 0-32 12.8-32 32v192c0 19.2 12.8 32 32 32s32-12.8 32-32v-192c0-16-12.8-32-32-32zM640 288c-19.2 0-32 12.8-32 32v512c0 19.2 12.8 32 32 32s32-12.8 32-32v-512c0-16-12.8-32-32-32zM800 288c-19.2 0-32 12.8-32 32v384c0 19.2 12.8 32 32 32s32-12.8 32-32v-384c0-16-12.8-32-32-32z" />
<glyph unicode="&#xe91c;" glyph-name="bar-chart" d="M96 32c-19.2 0-32 12.8-32 32v800c0 19.2 12.8 32 32 32s32-12.8 32-32v-800c0-16-12.8-32-32-32zM320 160c-19.2 0-32 12.8-32 32v384c0 19.2 12.8 32 32 32s32-12.8 32-32v-384c0-16-12.8-32-32-32zM544 160c-19.2 0-32 12.8-32 32v512c0 19.2 12.8 32 32 32s32-12.8 32-32v-512c0-16-12.8-32-32-32zM768 160c-19.2 0-32 12.8-32 32v224c0 19.2 12.8 32 32 32s32-12.8 32-32v-224c0-16-12.8-32-32-32zM64 64c0 19.2 12.8 32 32 32h864c19.2 0 32-12.8 32-32s-12.8-32-32-32h-864c-19.2 0-32 16-32 32z" />
<glyph unicode="&#xe91d;" glyph-name="caret-right" d="M240 937.6l566.4-476.8c6.4-6.4 6.4-19.2 0-25.6l-566.4-476.8c-9.6-9.6-25.6 0-25.6 12.8v953.6c-3.2 12.8 12.8 22.4 25.6 12.8z" />
<glyph unicode="&#xe91e;" glyph-name="home" d="M1014.4 502.4l-153.6 137.6 67.2 76.8c9.6 9.6 12.8 22.4 12.8 35.2s-6.4 25.6-16 32l-80 70.4c-9.6 9.6-22.4 12.8-35.2 12.8s-25.6-6.4-32-16l-67.2-76.8-163.2 147.2c-19.2 16-44.8 16-64 0l-470.4-425.6c-12.8-12.8-12.8-32-3.2-44.8 6.4-6.4 16-9.6 22.4-9.6s16 3.2 22.4 9.6l457.6 416 457.6-409.6c12.8-12.8 32-9.6 44.8 3.2 12.8 9.6 12.8 28.8 0 41.6zM812.8 796.8l54.4-48-51.2-57.6-54.4 48 51.2 57.6zM864 441.6c-19.2 0-32-12.8-32-32v-384h-160v160c0 25.6-22.4 48-48 48h-224c-25.6 0-48-22.4-48-48v-160h-160v384c0 19.2-12.8 32-32 32s-32-12.8-32-32v-400c0-25.6 22.4-48 48-48h192c25.6 0 48 22.4 48 48v160h192v-160c0-25.6 22.4-48 48-48h192c25.6 0 48 22.4 48 48v400c0 19.2-12.8 32-32 32z" />
<glyph unicode="&#xe91f;" glyph-name="cny-alt" d="M512 896c246.4 0 448-201.6 448-448s-201.6-448-448-448-448 201.6-448 448 201.6 448 448 448zM512 960c-281.6 0-512-230.4-512-512s230.4-512 512-512 512 230.4 512 512-230.4 512-512 512zM688 448h-352c-19.2 0-32 12.8-32 32s12.8 32 32 32h352c19.2 0 32-12.8 32-32 0-16-12.8-32-32-32zM688 288h-352c-19.2 0-32 12.8-32 32s12.8 32 32 32h352c19.2 0 32-12.8 32-32 0-16-12.8-32-32-32zM710.4 649.6l-156.8-156.8c-12.8-12.8-32-12.8-44.8 0s-12.8 32 0 44.8l156.8 156.8c12.8 12.8 32 12.8 44.8 0s12.8-32 0-44.8zM358.4 694.4l156.8-156.8c12.8-12.8 12.8-32 0-44.8s-32-12.8-44.8 0l-156.8 156.8c-12.8 12.8-12.8 32 0 44.8 12.8 9.6 32 9.6 44.8 0zM544 480v-320c0-19.2-12.8-32-32-32s-32 12.8-32 32v320c0 19.2 12.8 32 32 32s32-12.8 32-32z" />
<glyph unicode="&#xe920;" glyph-name="exclamation-alt_1" d="M512-64c-281.6 0-512 230.4-512 512s230.4 512 512 512 512-230.4 512-512-230.4-512-512-512zM512 896c-246.4 0-448-201.6-448-448s201.6-448 448-448 448 201.6 448 448-201.6 448-448 448zM512 288c-19.2 0-32 12.8-32 32v384c0 19.2 12.8 32 32 32s32-12.8 32-32v-384c0-19.2-12.8-32-32-32zM512 160c-19.2 0-32 12.8-32 32s12.8 32 32 32 32-12.8 32-32-12.8-32-32-32z" />
<glyph unicode="&#xe921;" glyph-name="exclamation-alt" d="M512 960c-281.6 0-512-230.4-512-512s230.4-512 512-512 512 230.4 512 512-230.4 512-512 512zM512 96c-35.2 0-64 28.8-64 64s28.8 64 64 64 64-28.8 64-64-28.8-64-64-64zM576 384c0-35.2-28.8-64-64-64s-64 28.8-64 64v352c0 35.2 28.8 64 64 64s64-28.8 64-64v-352z" />
<glyph unicode="&#xe922;" glyph-name="finish" d="M224 614.4c-19.2 0-32 12.8-32 32s12.8 32 32 32 32-12.8 32-32-12.8-32-32-32zM224 393.6c-19.2 0-32 12.8-32 32s12.8 32 32 32 32-12.8 32-32-12.8-32-32-32zM540.8 614.4h-192c-19.2 0-32 12.8-32 32s12.8 32 32 32h192c19.2 0 32-12.8 32-32s-12.8-32-32-32zM668.8 96l-134.4 134.4c-19.2 19.2-19.2 48 0 67.2s48 19.2 67.2 0l134.4-134.4c19.2-19.2 19.2-48 0-67.2-16-19.2-48-19.2-67.2 0zM668.8 163.2l272 272c19.2 19.2 48 19.2 67.2 0s19.2-48 0-67.2l-268.8-272c-19.2-19.2-48-19.2-67.2 0-22.4 19.2-22.4 48-3.2 67.2zM636.8 393.6h-288c-19.2 0-32 12.8-32 32s12.8 32 32 32h288c19.2 0 32-12.8 32-32s-12.8-32-32-32zM796.8-60.8h-732.8c-35.2 0-64 28.8-64 64v892.8c0 35.2 28.8 64 64 64h732.8c35.2 0 64-28.8 64-64v-316.8c0-25.6-22.4-48-48-48s-48 22.4-48 48v284.8h-668.8v-828.8h668.8c3.2 25.6 22.4 44.8 48 44.8s48-22.4 48-48v-28.8c0-35.2-28.8-64-64-64z" />
<glyph unicode="&#xe923;" glyph-name="forbid" d="M412.8 380.8c-140.8 0-256 115.2-256 256s115.2 256 256 256 256-115.2 256-256-115.2-256-256-256zM412.8 828.8c-105.6 0-192-86.4-192-192s86.4-192 192-192 192 86.4 192 192-86.4 192-192 192zM704-64c-163.2 0-294.4 131.2-294.4 294.4s131.2 294.4 294.4 294.4 294.4-131.2 294.4-294.4-131.2-294.4-294.4-294.4zM704 460.8c-128 0-230.4-102.4-230.4-230.4s102.4-230.4 230.4-230.4 230.4 102.4 230.4 230.4-105.6 230.4-230.4 230.4zM336-64h-243.2c-25.6 0-48 22.4-48 48v144c9.6 172.8 179.2 316.8 368 316.8 19.2 0 32-12.8 32-32s-12.8-32-32-32c-144 0-304-115.2-304-272v-108.8h227.2c19.2 0 32-12.8 32-32s-12.8-32-32-32zM567.68 432.384l346.208-346.208-45.28-45.248-346.176 346.208z" />
<glyph unicode="&#xe924;" glyph-name="lending" d="M1001.6 480c-6.4 16-25.6 28.8-44.8 28.8h-172.8v342.4c0 25.6-22.4 48-48 48h-448c-25.6 0-48-22.4-48-48v-342.4h-172.8c-19.2 0-35.2-9.6-44.8-28.8-6.4-16-3.2-38.4 9.6-54.4l438.4-412.8c9.6-9.6 22.4-16 35.2-16s25.6 6.4 35.2 12.8l448 419.2c16 12.8 19.2 32 12.8 51.2zM508.8 64l-403.2 377.6h147.2c25.6 0 48 22.4 48 48v342.4h416v-342.4c0-25.6 22.4-48 48-48h147.2l-403.2-377.6zM640 448c19.2 0 32 12.8 32 32s-12.8 32-32 32h-57.6l44.8 64c19.2 28.8 0 64-32 64-12.8 0-25.6-6.4-32-16l-51.2-67.2-51.2 67.2c-6.4 9.6-19.2 16-32 16-32 0-51.2-38.4-32-64l44.8-64h-57.6c-19.2 0-32-12.8-32-32s12.8-32 32-32h80v-25.6h-80c-19.2 0-32-12.8-32-32v-3.2c0-19.2 12.8-32 32-32h80v-48c0-25.6 22.4-48 48-48s48 22.4 48 48v48h80c16 0 32 16 32 32v3.2c0 19.2-12.8 32-32 32h-80v25.6h80z" />
<glyph unicode="&#xe925;" glyph-name="card" d="M979.2 800h-931.2c-25.6 0-44.8-19.2-44.8-44.8v-614.4c0-25.6 19.2-44.8 44.8-44.8h931.2c25.6 0 44.8 19.2 44.8 44.8v611.2c0 28.8-19.2 48-44.8 48zM76.8 736h867.2c6.4 0 12.8-6.4 12.8-12.8v-83.2h-896v83.2c3.2 6.4 9.6 12.8 16 12.8zM800 576l-48-64h-48l48 64h48zM880 576h80v-64h-128l48 64zM672 576l-48-64h-560v64h608zM64 176v275.2h896v-275.2c0-6.4-6.4-12.8-12.8-12.8h-867.2c-9.6-3.2-16 3.2-16 12.8zM544 384h-416c-19.2 0-32-12.8-32-32s12.8-32 32-32h416c19.2 0 32 12.8 32 32s-12.8 32-32 32zM416 288h-288c-19.2 0-32-12.8-32-32s12.8-32 32-32h288c19.2 0 32 12.8 32 32s-12.8 32-32 32z" />
<glyph unicode="&#xe926;" glyph-name="lock" d="M768 512h-96v192c0 89.6-70.4 160-160 160s-160-70.4-160-160v-192h-96v192c0 140.8 115.2 256 256 256s256-115.2 256-256v-192zM841.6-64h-662.4c-38.4 0-70.4 28.8-70.4 67.2v473.6c0 38.4 32 67.2 70.4 67.2h662.4c38.4 0 70.4-28.8 70.4-67.2v-473.6c0-35.2-32-67.2-70.4-67.2zM217.6 38.4h592v406.4h-592v-406.4zM576 320c0 35.2-28.8 64-64 64s-64-28.8-64-64c0-25.6 12.8-44.8 35.2-57.6 0-3.2-3.2-6.4-3.2-6.4v-128c0-19.2 12.8-32 32-32s32 12.8 32 32v128c0 3.2 0 6.4-3.2 6.4 22.4 12.8 35.2 35.2 35.2 57.6z" />
<glyph unicode="&#xe927;" glyph-name="link" horiz-adv-x="1029" d="M743.029 210.749c-12.653-12.653-31.633-12.653-44.287 0l-401.745 408.072c-12.653 12.653-12.653 31.633 0 44.287s31.633 12.653 44.287 0l398.581-408.072c15.817-12.653 15.817-31.633 3.163-44.287zM575.372 659.944l167.657 167.657c34.797 34.797 91.737 44.287 132.86 15.817 53.777-37.96 60.104-113.88 15.817-158.167l-170.821-167.657c-18.98-18.98-18.98-47.45 0-66.43s47.45-18.98 66.43 0l170.821 167.657c79.084 75.92 79.084 202.454 3.163 281.538s-202.454 79.084-281.538 3.163l-170.821-173.984c-18.98-18.98-18.98-47.45 0-66.43 15.817-18.98 47.45-22.143 66.43-3.163zM442.511 236.056l-167.657-167.657c-34.797-34.797-91.737-44.287-132.86-15.817-53.777 37.96-60.104 113.88-15.817 158.167l170.821 167.657c18.98 18.98 18.98 47.45 0 66.43s-47.45 18.98-66.43 0l-170.821-167.657c-79.084-75.92-79.084-202.454-3.163-281.538s202.454-79.084 281.538-3.163l170.821 167.657c18.98 18.98 18.98 47.45 0 66.43-15.817 25.307-47.45 28.47-66.43 9.49z" />
<glyph unicode="&#xe928;" glyph-name="trash" d="M400 956.8h224v-128h-224zM76.8 867.2h870.4v-96h-870.4zM857.6-60.8h-691.2v739.2h691.2v-739.2zM262.4 35.2h499.2v547.2h-499.2v-547.2zM480 640h64v-640h-64z" />
<glyph unicode="&#xe929;" glyph-name="menu-right" d="M51.2 688h704c25.6 0 48 22.4 48 48s-22.4 48-48 48h-704c-25.6 0-48-22.4-48-48s22.4-48 48-48zM51.2 400h704c25.6 0 48 22.4 48 48s-22.4 48-48 48h-704c-25.6 0-48-22.4-48-48s22.4-48 48-48zM51.2 112h704c25.6 0 48 22.4 48 48s-22.4 48-48 48h-704c-25.6 0-48-22.4-48-48s22.4-48 48-48zM928 345.6l89.6 89.6c6.4 6.4 6.4 16 0 22.4l-89.6 89.6c-9.6 9.6-28.8 3.2-28.8-12.8v-182.4c0-9.6 16-16 28.8-6.4z" />
<glyph unicode="&#xe92a;" glyph-name="pie-chart" d="M512-64c-281.6 0-512 230.4-512 512s230.4 512 512 512 512-230.4 512-512-230.4-512-512-512zM512 896c-246.4 0-448-201.6-448-448s201.6-448 448-448 448 201.6 448 448-201.6 448-448 448zM512 448c-19.2 0-32 12.8-32 32v448c0 19.2 12.8 32 32 32s32-12.8 32-32v-448c0-19.2-12.8-32-32-32zM534.4 457.6c-12.8-12.8-32-12.8-44.8 0l-316.8 316.8c-12.8 12.8-12.8 32 0 44.8s32 12.8 44.8 0l316.8-316.8c12.8-12.8 12.8-32 0-44.8zM195.2 118.4l-44.8 44.8 339.2 339.2c12.8 12.8 32 12.8 44.8 0s12.8-32 0-44.8l-339.2-339.2z" />
<glyph unicode="&#xe92b;" glyph-name="search" horiz-adv-x="1026" d="M434.777 125.573c-223.782 0-402.808 179.026-402.808 399.611s179.026 402.808 402.808 402.808 402.808-179.026 402.808-402.808-182.223-399.611-402.808-399.611zM434.777 864.055c-188.617 0-338.87-150.254-338.87-338.87s150.254-338.87 338.87-338.87 338.87 150.254 338.87 338.87-153.451 338.87-338.87 338.87zM943.083-53.453l-274.933 274.933c-15.984 15.984-15.984 15.984 3.197 35.166s51.15 51.15 67.135 35.166l274.933-274.933c15.984-15.984 15.984-47.953-3.197-67.135-19.181-15.984-51.15-19.181-67.135-3.197z" />
<glyph unicode="&#xe92c;" glyph-name="signout" d="M454.4-6.4c-249.6 0-454.4 201.6-454.4 454.4s204.8 454.4 454.4 454.4c54.4 0 108.8-9.6 160-28.8 32-12.8 60.8-25.6 89.6-44.8 16-9.6 19.2-28.8 9.6-44.8-9.6-12.8-28.8-19.2-41.6-9.6-22.4 16-48 28.8-76.8 38.4-44.8 16-89.6 25.6-137.6 25.6-217.6 0-393.6-172.8-393.6-390.4s176-390.4 390.4-390.4c48 0 96 9.6 137.6 25.6 25.6 9.6 51.2 22.4 76.8 38.4 16 9.6 35.2 6.4 44.8-9.6s6.4-35.2-9.6-44.8c-28.8-19.2-57.6-32-89.6-44.8-48-19.2-102.4-28.8-160-28.8zM473.6 236.8c-115.2 0-211.2 92.8-211.2 211.2s92.8 211.2 211.2 211.2c32 0 67.2-6.4 96-22.4 16-9.6 22.4-28.8 12.8-41.6s-28.8-22.4-41.6-12.8c-19.2 9.6-41.6 16-67.2 16-80 0-147.2-64-147.2-147.2s64-147.2 147.2-147.2c22.4 0 44.8 6.4 67.2 16 16 9.6 35.2 3.2 41.6-12.8 9.6-16 3.2-35.2-12.8-41.6-28.8-19.2-64-28.8-96-28.8zM956.8 416h-310.4c-19.2 0-32 12.8-32 32s12.8 32 32 32h310.4c19.2 0 32-12.8 32-32s-16-32-32-32zM819.2 227.2c-9.6 0-16 3.2-22.4 9.6-12.8 12.8-12.8 32 0 44.8l160 160c3.2 3.2 3.2 6.4 0 9.6l-160 160c-12.8 12.8-12.8 32 0 44.8s32 12.8 44.8 0l160-160c28.8-28.8 28.8-73.6 0-99.2l-160-160c-6.4-6.4-12.8-9.6-22.4-9.6z" />
<glyph unicode="&#xe92d;" glyph-name="angle-up" horiz-adv-x="1027" d="M33.745 211.226c-9.599 0-19.198 3.2-25.597 9.599-12.799 12.799-9.599 31.997 3.2 44.795l470.349 409.555c19.198 15.998 44.795 15.998 63.993 0l470.349-406.356c12.799-12.799 15.998-31.997 3.2-44.795s-31.997-15.998-44.795-3.2l-460.75 396.757-457.55-399.956c-6.399-3.2-15.998-6.399-22.398-6.399z" />
<glyph unicode="&#xe92e;" glyph-name="chevron-left" d="M985.374 58.030l-770.833 371.023 770.833 371.023c31.985 15.992 44.779 54.374 28.786 86.359s-54.374 44.779-86.359 28.786l-889.176-428.596c-6.397 0-6.397-3.198-9.595-6.397 0 0-3.198 0-3.198-3.198-3.198 0-3.198-3.198-3.198-3.198l-3.198-3.198s0-3.198-3.198-3.198c-3.198-3.198-3.198-6.397-6.397-6.397v-3.198c0-3.198-3.198-6.397-3.198-9.595v-31.985c0-3.198 3.198-6.397 3.198-9.595v-3.198c0-3.198 3.198-6.397 6.397-6.397 0 0 0-3.198 3.198-3.198 0-3.198 3.198-3.198 3.198-3.198l3.198-3.198s3.198 0 3.198-3.198c3.198-9.595 3.198-9.595 6.397-12.794l895.573-428.596c31.985-15.992 70.366-3.198 83.16 28.786 15.992 31.985 3.198 70.366-28.786 86.359z" />
<glyph unicode="&#xe92f;" glyph-name="chevron-right" d="M35.672 58.030l774.031 371.023-774.031 374.222c-31.985 15.992-44.779 54.374-28.786 86.359s54.374 44.779 86.359 28.786l892.375-428.596 3.198-3.198c3.198-3.198 6.397-3.198 9.595-6.397s6.397-6.397 6.397-9.595c3.198-3.198 3.198-6.397 6.397-9.595 0-3.198 3.198-6.397 3.198-9.595v-31.985c0-3.198-3.198-6.397-3.198-9.595s-3.198-6.397-6.397-9.595c-3.198-3.198-6.397-6.397-6.397-9.595-3.198-3.198-6.397-6.397-9.595-6.397l-3.198-3.198-892.375-438.191c-31.985-15.992-70.366-3.198-86.359 28.786s-3.198 70.366 28.786 86.359z" />
<glyph unicode="&#xe930;" glyph-name="double-chevron-left" d="M604.8 220.8l-467.2 227.2 470.4 227.2c19.2 9.6 28.8 32 19.2 51.2s-32 28.8-51.2 19.2l-547.2-262.4c-3.2 0-3.2-3.2-6.4-3.2s-3.2-3.2-3.2-3.2c-3.2-3.2-3.2-6.4-6.4-6.4l-3.2-3.2v-3.2c0-3.2-3.2-6.4-3.2-9.6v-12.8c0-3.2 0-6.4 3.2-9.6v-3.2l3.2-3.2c3.2-3.2 3.2-6.4 6.4-6.4l3.2-3.2c3.2 0 3.2-3.2 6.4-3.2l540.8-262.4c19.2-9.6 41.6 0 51.2 19.2 12.8 16 3.2 41.6-16 51.2zM992 220.8l-467.2 227.2 467.2 227.2c19.2 9.6 28.8 32 19.2 51.2s-32 28.8-51.2 19.2l-540.8-262.4c-3.2 0-3.2-3.2-6.4-3.2s-3.2-3.2-3.2-3.2c-3.2-3.2-3.2-6.4-6.4-6.4l-3.2-3.2v-3.2c0-3.2-3.2-6.4-3.2-9.6v-12.8c0-3.2 0-6.4 3.2-9.6v-3.2l3.2-3.2c3.2-3.2 3.2-6.4 6.4-6.4l3.2-3.2c3.2 0 3.2-3.2 6.4-3.2l540.8-265.6c19.2-9.6 41.6 0 51.2 19.2s0 44.8-19.2 54.4z" />
<glyph unicode="&#xe931;" glyph-name="double-chevron-right" d="M403.2 172.8c9.6-19.2 32-28.8 51.2-19.2l540.8 262.4c3.2 0 3.2 3.2 6.4 3.2l3.2 3.2c3.2 0 3.2 3.2 6.4 6.4l3.2 3.2v3.2c3.2 3.2 3.2 6.4 3.2 9.6v12.8c0 3.2-3.2 6.4-3.2 9.6v3.2l-3.2 3.2c-3.2 0-3.2 3.2-6.4 6.4 0 0 0 3.2-3.2 3.2s-3.2 3.2-6.4 3.2l-547.2 262.4c-19.2 9.6-41.6 0-51.2-19.2s0-41.6 19.2-51.2l470.4-227.2-467.2-227.2c-19.2-9.6-28.8-35.2-16-51.2zM12.8 169.6c9.6-19.2 32-28.8 51.2-19.2l540.8 265.6c3.2 0 3.2 3.2 6.4 3.2l3.2 3.2c3.2 0 3.2 3.2 6.4 6.4l3.2 3.2v3.2c3.2 3.2 3.2 6.4 3.2 9.6v12.8c0 3.2-3.2 6.4-3.2 9.6v3.2l-3.2 3.2c-3.2 0-3.2 3.2-6.4 6.4 0 0 0 3.2-3.2 3.2s-3.2 3.2-6.4 3.2l-540.8 262.4c-19.2 9.6-41.6 0-51.2-19.2s0-41.6 19.2-51.2l467.2-227.2-467.2-227.2c-19.2-9.6-28.8-35.2-19.2-54.4z" />
<glyph unicode="&#xe932;" glyph-name="download-sign" d="M960 352c-35.2 0-64-28.8-64-64v-224h-768v224c0 35.2-28.8 64-64 64s-64-28.8-64-64v-320c0-19.2 12.8-32 32-32h960c19.2 0 32 12.8 32 32v320c0 35.2-28.8 64-64 64zM764.8 512h-188.8v288c0 35.2-28.8 64-64 64s-64-28.8-64-64v-288h-188.8c-16 0-22.4-19.2-12.8-28.8l252.8-281.6c6.4-6.4 19.2-6.4 25.6 0l252.8 281.6c9.6 9.6 3.2 28.8-12.8 28.8z" />
<glyph unicode="&#xe933;" glyph-name="download" d="M976 320c-25.6 0-48-22.4-48-48v-240h-832v240c0 25.6-22.4 48-48 48s-48-22.4-48-48v-288c0-25.6 22.4-48 48-48h928c25.6 0 48 22.4 48 48v288c0 25.6-22.4 48-48 48zM726.4 441.6c-19.2 19.2-48 19.2-67.2 0l-99.2-99.2v396.8c0 25.6-22.4 48-48 48s-48-19.2-48-48v-396.8l-99.2 99.2c-19.2 19.2-48 19.2-67.2 0s-19.2-48 0-67.2l179.2-179.2c19.2-19.2 48-19.2 67.2 0l182.4 182.4c19.2 16 19.2 48 0 64z" />
<glyph unicode="&#xe934;" glyph-name="minus-square" d="M960 960h-912c-25.6 0-48-22.4-48-48v-928c0-25.6 22.4-48 48-48h928c25.6 0 48 22.4 48 48v912c0 35.2-28.8 64-64 64zM736 384h-448c-35.2 0-64 28.8-64 64s28.8 64 64 64h448c35.2 0 64-28.8 64-64s-28.8-64-64-64z" />
<glyph unicode="&#xe935;" glyph-name="safe_1" d="M512-48h-9.6c-16 6.4-57.6 22.4-76.8 32-201.6 96-342.4 291.2-384 534.4-6.4 35.2-9.6 73.6-12.8 112v57.6c-3.2 9.6 3.2 16 9.6 16 19.2 6.4 57.6 16 73.6 19.2l57.6 19.2c108.8 38.4 208 89.6 275.2 147.2 6.4 6.4 35.2 35.2 51.2 48 6.4 6.4 16 6.4 22.4 0l38.4-38.4c89.6-80 230.4-144 393.6-179.2l32-6.4c6.4 0 12.8-9.6 12.8-16v-51.2c-16-304-182.4-566.4-428.8-672-9.6-6.4-41.6-16-54.4-22.4zM89.6 640c12.8-294.4 172.8-531.2 409.6-617.6h12.8c240 86.4 403.2 332.8 419.2 627.2 0 6.4-3.2 12.8-12.8 16-92.8 22.4-272 76.8-403.2 188.8-6.4 6.4-16 6.4-22.4 0-118.4-115.2-291.2-172.8-390.4-198.4-6.4-3.2-12.8-9.6-12.8-16zM835.2 611.2c-16 3.2-44.8 9.6-51.2 9.6-96 22.4-176 64-233.6 108.8-3.2 3.2-22.4 22.4-35.2 32-6.4 6.4-16 6.4-22.4 0l-28.8-28.8c-54.4-54.4-137.6-96-230.4-121.6-6.4-3.2-35.2-9.6-54.4-12.8-6.4 0-12.8-9.6-12.8-16v-38.4c9.6-224 134.4-406.4 320-470.4 3.2 0 16-6.4 16-6.4s16 6.4 19.2 6.4c185.6 64 310.4 252.8 323.2 470.4v41.6c3.2 16 0 22.4-9.6 25.6zM518.4 678.4c83.2-67.2 188.8-102.4 252.8-118.4 6.4-3.2 12.8-9.6 12.8-16 0-19.2-3.2-38.4-6.4-54.4h-268.8v192c3.2 0 6.4 0 9.6-3.2zM499.2 144c-137.6 51.2-233.6 182.4-259.2 345.6h265.6v-345.6h-6.4z" />
<glyph unicode="&#xe936;" glyph-name="safe" d="M515.2-41.6h-9.6c-16 6.4-57.6 22.4-76.8 32-201.6 96-342.4 294.4-384 540.8-6.4 35.2-9.6 73.6-12.8 112v60.8c0 6.4 6.4 12.8 12.8 16 12.8 3.2 51.2 12.8 67.2 16l57.6 19.2c108.8 38.4 208 89.6 275.2 150.4l51.2 51.2c6.4 6.4 16 6.4 22.4 0l38.4-38.4c89.6-80 230.4-147.2 393.6-182.4l32-6.4c6.4 0 12.8-9.6 12.8-16v-51.2c-16-310.4-182.4-572.8-425.6-681.6-12.8-6.4-44.8-19.2-54.4-22.4zM89.6 652.8c12.8-297.6 172.8-537.6 412.8-627.2h12.8c240 86.4 403.2 339.2 419.2 633.6 0 6.4-3.2 12.8-12.8 16-92.8 22.4-272 76.8-403.2 192-6.4 6.4-16 6.4-22.4 0-121.6-115.2-294.4-172.8-393.6-198.4-6.4-3.2-12.8-9.6-12.8-16zM505.6 80s-12.8 3.2-16 6.4c-185.6 64-310.4 249.6-320 476.8v41.6c0 6.4 6.4 12.8 12.8 16 16 3.2 48 9.6 54.4 12.8 92.8 25.6 176 67.2 230.4 121.6l28.8 28.8c6.4 6.4 16 6.4 22.4 0l35.2-35.2c54.4-48 137.6-86.4 233.6-112 6.4 0 35.2-6.4 51.2-9.6 6.4 0 12.8-9.6 12.8-16v-41.6c-12.8-224-137.6-412.8-320-476.8-6.4-6.4-25.6-12.8-25.6-12.8zM236.8 550.4c12.8-188.8 115.2-339.2 265.6-400h12.8c150.4 57.6 256 217.6 268.8 403.2 0 6.4-3.2 16-12.8 16-64 16-172.8 51.2-252.8 118.4-6.4 6.4-16 6.4-19.2 0-64-54.4-150.4-99.2-249.6-124.8-9.6 3.2-16-6.4-12.8-12.8zM508.8 499.2h-316.8l25.6 80 291.2 140.8zM508.8 499.2h313.6l-163.2-304-150.4-54.4z" />
<glyph unicode="&#xe937;" glyph-name="package" d="M947.2 672h-243.2v83.2c0 41.6-35.2 76.8-76.8 76.8h-230.4c-41.6 0-76.8-35.2-76.8-76.8v-83.2h-243.2c-41.6 0-76.8-35.2-76.8-76.8v-582.4c0-41.6 35.2-76.8 76.8-76.8h870.4c41.6 0 76.8 35.2 76.8 76.8v582.4c0 41.6-35.2 76.8-76.8 76.8zM384 755.2c0 6.4 6.4 12.8 12.8 12.8h230.4c6.4 0 12.8-6.4 12.8-12.8v-83.2h-256v83.2zM960 12.8c0-6.4-6.4-12.8-12.8-12.8h-870.4c-6.4 0-12.8 6.4-12.8 12.8v371.2h128v-32c0-19.2 12.8-32 32-32s32 16 32 32v32h512v-32c0-19.2 12.8-32 32-32s32 16 32 32v32h128v-371.2zM960 448h-128v32c0 19.2-12.8 32-32 32s-32-12.8-32-32v-32h-512v32c0 19.2-12.8 32-32 32s-32-12.8-32-32v-32h-128v147.2c0 6.4 6.4 12.8 12.8 12.8h870.4c6.4 0 12.8-6.4 12.8-12.8v-147.2z" />
<glyph unicode="&#xe938;" glyph-name="star" d="M512 51.2l-233.6-83.2c-60.8-22.4-108.8 12.8-105.6 76.8l6.4 249.6-147.2 198.4c-38.4 51.2-19.2 108.8 38.4 124.8l236.8 70.4 137.6 208c35.2 54.4 96 54.4 131.2 0l140.8-204.8 236.8-70.4c60.8-19.2 80-73.6 38.4-124.8l-150.4-198.4 6.4-249.6c0-67.2-48-102.4-105.6-76.8l-230.4 80z" />
<glyph unicode="&#xe939;" glyph-name="send" d="M1000.803 819.312c-3.197 0-3.197 0-6.395-3.197l-988.013-479.618c-12.79-6.395-12.79-22.382 0-28.777l326.14-191.847 25.58-163.070c3.197-12.79 12.79-19.185 22.382-15.987 3.197 0 6.395 3.197 9.592 6.395l86.331 86.331 137.491-79.936c3.197-3.197 6.395-3.197 9.592-3.197 6.395 0 9.592 3.197 12.79 9.592l386.892 837.733c3.197 15.987-9.592 28.777-22.382 25.58zM824.943 665.834l-479.618-482.816-233.414 137.491 713.032 345.325zM601.121 29.541l-201.44 118.306 486.013 486.013-284.573-604.319z" />
<glyph unicode="&#xe93a;" glyph-name="upload-alt" d="M512-64c-281.6 0-512 230.4-512 512s230.4 512 512 512 512-230.4 512-512-230.4-512-512-512zM512 896c-246.4 0-448-201.6-448-448s201.6-448 448-448 448 201.6 448 448-201.6 448-448 448zM704 595.2l-156.8 156.8c-9.6 9.6-22.4 16-35.2 12.8-12.8 0-25.6-3.2-35.2-12.8l-156.8-156.8c-19.2-19.2-19.2-51.2 3.2-67.2 19.2-19.2 48-19.2 67.2 0l73.6 73.6v-236.8c0-25.6 22.4-48 48-48s48 22.4 48 48v240l76.8-76.8c19.2-19.2 48-19.2 67.2 0s19.2 48 0 67.2zM560 128h-96c-19.2 0-32 12.8-32 32s12.8 32 32 32h96c19.2 0 32-12.8 32-32s-12.8-32-32-32z" />
<glyph unicode="&#xe93b;" glyph-name="user-alt" d="M512-64c-281.6 0-512 230.4-512 512s230.4 512 512 512 512-230.4 512-512-230.4-512-512-512zM512 896c-246.4 0-448-201.6-448-448s201.6-448 448-448 448 201.6 448 448-201.6 448-448 448zM780.8 185.6c-28.8 22.4-70.4 38.4-128 57.6-22.4 6.4-16 44.8-16 44.8 0 3.2 0 6.4 3.2 6.4l3.2 3.2c9.6 19.2 12.8 25.6 28.8 41.6 0 0 3.2 3.2 6.4 3.2 9.6 9.6 25.6 19.2 35.2 41.6s16 35.2 16 54.4c0 16-3.2 28.8-6.4 38.4-3.2 6.4-3.2 16 0 25.6 19.2 70.4 9.6 140.8-25.6 192-41.6 57.6-121.6 86.4-182.4 86.4s-144-28.8-182.4-86.4c-35.2-51.2-44.8-121.6-25.6-192 3.2-9.6 3.2-19.2 0-28.8s-6.4-19.2-3.2-35.2c0-19.2 6.4-32 16-54.4 6.4-19.2 22.4-28.8 32-38.4 3.2 0 3.2-3.2 3.2-3.2 16-19.2 19.2-22.4 28.8-41.6l3.2-3.2c0-3.2 0-3.2 3.2-6.4 0 0 6.4-38.4-16-44.8-57.6-16-96-35.2-128-57.6-12.8-9.6-16-28.8-6.4-44.8 0-12.8 9.6-16 19.2-16 6.4 0 12.8 3.2 19.2 6.4 25.6 16 57.6 32 108.8 48 64 19.2 67.2 86.4 60.8 121.6-3.2 6.4-3.2 12.8-6.4 19.2l-3.2 3.2c-12.8 25.6-16 35.2-41.6 60.8-3.2 3.2-6.4 3.2-6.4 6.4-3.2 3.2-12.8 9.6-16 16-9.6 19.2-9.6 22.4-9.6 28.8s0 9.6 3.2 19.2c6.4 19.2 3.2 41.6 0 60.8-16 51.2-9.6 102.4 16 137.6 25.6 38.4 86.4 60.8 131.2 60.8s105.6-22.4 131.2-60.8c25.6-35.2 32-86.4 16-137.6-6.4-19.2-6.4-41.6 0-64 3.2-6.4 3.2-9.6 3.2-16s-3.2-9.6-9.6-32l-16-16c-3.2-3.2-6.4-3.2-9.6-9.6-22.4-22.4-28.8-35.2-38.4-57.6l-3.2-3.2c-3.2-6.4-6.4-12.8-6.4-22.4-6.4-32-3.2-102.4 60.8-118.4 51.2-16 83.2-28.8 108.8-48 6.4-3.2 12.8-6.4 19.2-6.4 9.6 0 19.2 3.2 25.6 12.8 3.2 19.2 0 38.4-16 48z" />
<glyph unicode="&#xe93c;" glyph-name="user" d="M512 352c-166.4 0-304 137.6-304 304s137.6 304 304 304 304-137.6 304-304-137.6-304-304-304zM512 864c-115.2 0-208-92.8-208-208s92.8-208 208-208 208 92.8 208 208-92.8 208-208 208zM928-64c-25.6 0-48 22.4-48 48 0 201.6-166.4 368-368 368s-368-166.4-368-368c0-25.6-22.4-48-48-48s-48 22.4-48 48c0 256 208 464 464 464s464-208 464-464c0-25.6-22.4-48-48-48z" />
<glyph unicode="&#xe93d;" glyph-name="upload" d="M864 803.2h-704c-25.6 0-48 22.4-48 48s22.4 48 48 48h704c25.6 0 48-22.4 48-48s-22.4-48-48-48zM793.6 374.4l-249.6 249.6c-19.2 19.2-48 19.2-67.2 0l-32-35.2-217.6-217.6c-19.2-19.2-19.2-48 0-67.2s48-19.2 67.2 0l166.4 166.4v-486.4c0-25.6 22.4-48 48-48s48 22.4 48 48v489.6l166.4-166.4c19.2-19.2 48-19.2 67.2 0 22.4 19.2 22.4 48 3.2 67.2z" />
<glyph unicode="&#xe93e;" glyph-name="caret-left" d="M809.6 924.8v-953.6c0-12.8-16-22.4-25.6-12.8l-566.4 476.8c-6.4 6.4-6.4 19.2 0 25.6l566.4 476.8c12.8 9.6 28.8 0 25.6-12.8z" />
<glyph unicode="&#xe93f;" glyph-name="caret-up" d="M988.8 150.4h-953.6c-12.8 0-22.4 16-12.8 25.6l476.8 566.4c6.4 6.4 19.2 6.4 25.6 0l476.8-566.4c9.6-12.8 0-28.8-12.8-25.6z" />
<glyph unicode="&#xe940;" glyph-name="download-alt" d="M960 428.8c-19.2 0-32-12.8-32-32v-332.8h-832v332.8c0 19.2-12.8 32-32 32s-32-12.8-32-32v-348.8c0-25.6 22.4-48 48-48h864c25.6 0 48 22.4 48 48v348.8c0 16-12.8 32-32 32zM476.8 246.4c9.6-9.6 22.4-16 35.2-16s25.6 6.4 35.2 16l211.2 211.2c12.8 12.8 12.8 32 0 44.8s-32 12.8-44.8 0l-169.6-169.6v531.2c0 19.2-12.8 32-32 32s-32-12.8-32-32v-531.2l-169.6 169.6c-12.8 12.8-32 12.8-44.8 0s-12.8-32 0-44.8l211.2-211.2z" />
<glyph unicode="&#xe941;" glyph-name="label" d="M947.2 928h-425.6c-12.8 0-22.4-3.2-32-12.8l-441.6-444.8c-19.2-19.2-19.2-48 0-64l425.6-425.6c9.6-9.6 19.2-12.8 32-12.8s22.4 3.2 32 12.8l444.8 441.6c9.6 9.6 12.8 19.2 12.8 32v425.6c-3.2 28.8-22.4 48-48 48zM928 464l-425.6-425.6-400 400 425.6 425.6h400v-400zM736 544c70.4 0 128 57.6 128 128s-57.6 128-128 128-128-57.6-128-128 57.6-128 128-128zM736 736c35.2 0 64-28.8 64-64s-28.8-64-64-64-64 28.8-64 64 28.8 64 64 64z" />
<glyph unicode="&#xe942;" glyph-name="store" horiz-adv-x="1030" d="M1030.516 643.222c0 3.2 0 6.401-3.2 9.601-16.002 28.803-99.211 195.222-121.614 236.827-3.2 6.401-9.601 9.601-16.002 9.601h-748.885c-6.401 0-12.801-3.2-16.002-9.601l-121.614-236.827c0-3.2-3.2-6.401-3.2-9.601 3.2-57.607 41.605-105.612 96.011-118.413v-476.854c0-25.603 22.403-48.005 48.005-48.005h736.083c25.603 0 48.005 22.403 48.005 48.005v476.854c60.807 12.801 99.211 60.807 102.412 118.413zM550.462 63.957v192.022h128.014v-192.022h-128.014zM742.484 63.957v240.027c0 9.601-6.401 16.002-16.002 16.002h-224.025c-9.601 0-16.002-6.401-16.002-16.002v-240.027h-320.036v457.652c32.004 6.401 57.607 25.603 73.608 54.406 6.401 6.401 12.801 12.801 22.403 12.801s16.002-3.2 22.403-12.801c22.403-35.204 60.807-57.607 105.612-57.607s83.209 22.403 105.612 57.607c6.401 6.401 12.801 12.801 22.403 12.801s16.002-3.2 22.403-12.801c22.403-35.204 60.807-57.607 105.612-57.607s83.209 22.403 105.612 57.607c6.401 6.401 12.801 12.801 22.403 12.801s16.002-3.2 22.403-12.801c16.002-25.603 44.805-44.805 73.608-54.406v-457.652h-128.014zM902.502 582.415c-22.403 0-41.605 9.601-54.406 28.803-16.002 25.603-44.805 38.404-73.608 38.404s-57.607-16.002-73.608-38.404c-12.801-19.202-32.004-28.803-54.406-28.803s-41.605 9.601-54.406 28.803c-16.002 25.603-44.805 38.404-73.608 38.404s-57.607-16.002-73.608-38.404c-12.801-19.202-32.004-28.803-54.406-28.803s-41.605 9.601-54.406 28.803c-16.002 25.603-44.805 38.404-73.608 38.404s-57.607-16.002-73.608-38.404c-12.801-19.202-32.004-28.803-54.406-28.803-32.004 0-57.607 22.403-64.007 51.206l102.412 198.422h691.278l102.412-198.422c-6.401-28.803-32.004-51.206-64.007-51.206z" />
<glyph unicode="&#xe943;" glyph-name="trash-alt" d="M931.2 867.2h-291.2c-9.6 0-16 6.4-16 16v57.6c0 9.6-6.4 16-16 16h-192c-9.6 0-16-6.4-16-16v-57.6c0-9.6-6.4-16-16-16h-291.2c-9.6 0-16-6.4-16-16v-64c0-9.6 6.4-16 16-16h838.4c9.6 0 16 6.4 16 16v64c0 9.6-6.4 16-16 16zM841.6 678.4h-659.2c-9.6 0-16-6.4-16-16v-707.2c0-9.6 6.4-16 16-16h659.2c9.6 0 16 6.4 16 16v707.2c0 9.6-6.4 16-16 16zM262.4 51.2v515.2c0 9.6 6.4 16 16 16h185.6c9.6 0 16-6.4 16-16v-515.2c0-9.6-6.4-16-16-16h-185.6c-9.6 0-16 9.6-16 16zM761.6 51.2c0-9.6-6.4-16-16-16h-185.6c-9.6 0-16 6.4-16 16v515.2c0 9.6 6.4 16 16 16h185.6c9.6 0 16-6.4 16-16v-515.2z" />
<glyph unicode="&#xe944;" glyph-name="user-sign" d="M659.2 428.8c76.8 48 124.8 134.4 124.8 230.4 0 150.4-121.6 272-272 272s-272-121.6-272-272c0-96 51.2-179.2 124.8-230.4-188.8-54.4-329.6-217.6-336-412.8 0-12.8 3.2-25.6 12.8-35.2s22.4-16 35.2-16h870.4c12.8 0 25.6 6.4 35.2 16s12.8 22.4 12.8 35.2c-9.6 195.2-147.2 358.4-336 412.8zM304 659.2c0 115.2 92.8 208 208 208s208-92.8 208-208-92.8-208-208-208-208 92.8-208 208zM92.8 32c16 188.8 179.2 339.2 384 355.2l-28.8-288h128l-28.8 288c204.8-16 364.8-163.2 384-355.2h-838.4z" />
<glyph unicode="&#xe945;" glyph-name="volume" d="M896 864h-32v32c0 19.2-12.8 32-32 32s-32-12.8-32-32v-32h-96v32c0 19.2-12.8 32-32 32s-32-12.8-32-32v-32h-96v32c0 19.2-12.8 32-32 32s-32-12.8-32-32v-32h-96v32c0 19.2-12.8 32-32 32s-32-12.8-32-32v-32h-96v32c0 19.2-12.8 32-32 32s-32-12.8-32-32v-32h-32c-19.2 0-32-12.8-32-32v-864c0-19.2 12.8-32 32-32h768c19.2 0 32 12.8 32 32v864c0 19.2-12.8 32-32 32zM854.4 0h-681.6c-6.4 0-9.6 6.4-9.6 9.6v790.4c0-19.2 12.8-32 32-32 16 0 28.8 9.6 32 25.6 0 3.2 6.4 6.4 9.6 6.4h76.8c3.2 0 9.6-3.2 9.6-6.4 3.2-12.8 16-25.6 32-25.6s28.8 9.6 32 25.6c0 3.2 6.4 6.4 9.6 6.4h76.8c3.2 0 9.6-3.2 9.6-6.4 3.2-12.8 16-25.6 32-25.6s28.8 9.6 32 25.6c0 3.2 6.4 6.4 9.6 6.4h76.8c3.2 0 9.6-3.2 9.6-6.4 3.2-12.8 16-25.6 32-25.6s28.8 9.6 32 25.6c0 3.2 6.4 6.4 9.6 6.4h76.8c3.2 0 9.6-3.2 9.6-6.4 3.2-12.8 16-25.6 32-25.6 19.2 0 32 12.8 32 32v-790.4c-3.2-3.2-9.6-9.6-12.8-9.6zM288 544h288c19.2 0 32 12.8 32 32s-12.8 32-32 32h-288c-19.2 0-32-12.8-32-32s12.8-32 32-32zM288 384h160c19.2 0 32 12.8 32 32s-12.8 32-32 32h-160c-19.2 0-32-12.8-32-32s12.8-32 32-32zM640 288h-352c-19.2 0-32-12.8-32-32s12.8-32 32-32h352c19.2 0 32 12.8 32 32s-12.8 32-32 32z" />
<glyph unicode="&#xe946;" glyph-name="wallet" d="M960 672h-112c0 3.2-3.2 3.2-3.2 6.4l-140.8 140.8c-16 16-44.8 16-60.8 0l-64-64-124.8 124.8c-19.2 19.2-51.2 19.2-70.4 0l-99.2-99.2c3.2 6.4 6.4 12.8 6.4 19.2 0 19.2-12.8 32-32 32h-192c-19.2 0-32-12.8-32-32v-768c0-19.2 12.8-32 32-32h896c19.2 0 32 12.8 32 32v608c-3.2 19.2-16 32-35.2 32zM672 761.6l86.4-86.4h-102.4c0 3.2-3.2 6.4-6.4 9.6l-28.8 28.8 51.2 48zM416 825.6l153.6-153.6h-307.2l153.6 153.6zM96 768h160c6.4 0 12.8 3.2 19.2 6.4l-96-96c-3.2-3.2-3.2-6.4-6.4-9.6h-80v99.2zM96 64v544h832v-192h-304c-9.6 0-16-6.4-16-16v-160c0-9.6 6.4-16 16-16h304v-160h-832zM928 288h-256v64h256v-64zM864 768h64c19.2 0 32 12.8 32 32s-12.8 32-32 32h-64c-19.2 0-32-12.8-32-32s12.8-32 32-32z" />
</font>
</defs>
</svg>
